<svg xmlns="http://www.w3.org/2000/svg" viewBox="198.952 -3.969 1884.386 1161.289" width="1884.386" height="1161.289"><path d="M1876.485 96.2c-.743.194-2.22.568-2.965.76-12.264 3.196-24.35 6.354-36.613 9.493l-3 .777c-28.94 7.553-60.015 15.54-88.963 22.961-42.988 11.013-88.002 22.268-131.136 32.71-20.27 4.838-40.6 9.6-60.928 14.222a4437.076 4437.076 0 01-44.432 9.873c-9.1 1.972-18.21 3.908-27.326 5.808-44.443 9.125-88.93 17.378-133.805 24.106a1965.101 1965.101 0 01-31.918 4.492c-34.346 4.545-68.736 8.12-103.29 10.533a1479.844 1479.844 0 01-62.36 3.041c-6.096.168-12.192.298-18.29.387a1434.5 1434.5 0 01-55.196-.256c-42.45-1.08-84.67-4.03-126.877-8.812-2.955-.335-5.91-.68-8.864-1.032-44.866-5.39-89.367-12.735-133.674-21.61a2187.167 2187.167 0 01-44.837-9.515 2379.555 2379.555 0 01-18.125-4.117c-23.292-5.385-46.532-11.12-69.649-17.123-37.88-9.758-75.35-20.224-112.883-30.978.651.189-18.464-5.31-17.812-5.121-32.184-9.41-66.768-19.595-98.842-29.213l-2.97-.885c-9.43-2.585-18.546-5.91-28.118-8.143-4.712 4.84-8.673 10.112-12.945 15.133-50.245 63.178-79.64 132.64-101.52 204.443.337.044 1 .142 1.336.186-.51 5.935.726 12.05.963 18.063a3774.843 3774.843 0 006.086 65.43c2.03 20.74 12.53 40.967 27.654 53.784 11.276 9.818 25.324 15.138 39.356 15.51 8.177.335 16.444 1.35 24.52-.406.133 4.079.23 8.158.306 12.238l.002.09c.076 4.05.132 8.101.184 12.153.096 7.528.188 15.06.363 22.597.015.635.02 1.27.037 1.904.258 21.215.442 41.492.518 62.792.456 128.203-12.479 327.94 31.175 451.318 2.656 9.097 11.453 16.236 21.36 18.836 8.35 2.379 17.16 1.908 24.937-.293 27.943-7.188 55.855-14.154 83.942-20.838 60.969-14.51 121.735-27.444 183.586-38.193a2498.883 2498.883 0 0118.197-3.094c62.27-10.348 124.438-18.222 187.408-23.363 60.367-4.93 120.562-7.273 181.144-7.002a2112.8 2112.8 0 0118.192.16c55.174.722 110.044 3.59 164.992 8.396 64.842 5.672 129.06 13.978 193.244 24.393 14.882 2.415 29.74 4.94 44.58 7.566 88.325 15.63 175.432 34.742 262.664 55.4 8.242 2.103 17.532 1.954 25.918-1.16 8.78-3.156 16.03-10.13 18.075-18.581 36.856-123.35 21.784-326.851 21.857-453.44.012-20.376.16-40.16.416-60.488.36-15.781.432-31.54.908-47.29 8.745 1.603 17.616.1 26.445 0 25.315-.734 48.94-20.167 59.311-46.183 3.366-8.148 5.276-16.854 6.047-25.525 2.814-27.644 6.197-56.669 8.305-84.469l-.819.102c-10.615-36.996-23.19-73.371-38.69-108.666-17.31-39.072-38.578-77.35-67.18-113.86z" fill="#fff"/><g stroke-width=".3"><path d="M1876.485 96.201c-.743.193-2.22.567-2.964.76-12.264 3.195-24.352 6.353-36.614 9.492l-3 .777c-28.941 7.553-60.015 15.54-88.963 22.961 45.903 57.785 73.248 121.459 94.223 186.844 2.13 6.362 3.68 12.98 6.389 19.115 6.368-2.098 12.857-2.319 19.3-3.113 38.89-4.624 79.842-9.495 117.5-14.309-10.615-36.996-23.19-73.371-38.69-108.666-17.31-39.072-38.577-77.35-67.18-113.86zm-1462.873 2.36c-4.712 4.84-8.673 10.111-12.945 15.132-50.245 63.178-79.64 132.64-101.52 204.444.337.044 1 .141 1.336.185 31.059 3.963 62.628 8.193 94.817 12.37 13.49 1.888 27.127 3.208 40.797 5.542 4.835-13.407 9.17-26.962 14.326-40.158 21.541-56.665 49.959-110.435 93.119-159.275-32.184-9.409-66.768-19.595-98.842-29.213l-2.97-.885c-9.43-2.585-18.546-5.91-28.118-8.143zm1200.196 64.34c-20.27 4.839-40.6 9.6-60.928 14.222a4437.076 4437.076 0 01-44.432 9.873c-9.1 1.972-18.209 3.909-27.326 5.809 7.8 12.603 15.733 25.409 22.31 38.52 15.307 30.022 27.272 61.777 37.1 94.568 4.102 13.7 7.852 27.656 11.309 41.779l.959-.096c6.688-.682 30.265-3.072 36.953-3.754 37.672-3.843 75.833-7.834 112.188-12.191-7.806-25.826-15.888-51.544-25.838-76.237-15.596-39.258-35.733-76.941-62.295-112.494zm-939.57 10c-45.214 54.035-72.34 115.776-93.206 181.54l1.035.12c40.59 4.84 81.027 9.748 123.532 14.15 6.437.668 12.894 1.322 19.375 1.959 3.29.323 6.585.642 9.886.955 8.019-30.971 18.32-60.741 29.934-89.063 11.701-27.79 25.057-54.174 42.055-78.908a2187.167 2187.167 0 01-44.838-9.513 2379.555 2379.555 0 01-18.125-4.118c-23.292-5.385-46.532-11.12-69.649-17.123zm673.08 44.01a1965.101 1965.101 0 01-31.918 4.493c-34.346 4.545-68.737 8.12-103.292 10.533 1.253 8.258 3.68 16.581 4.676 25.168.914 6.74 2.646 13.51 3.192 20.461.631 6.946 2.292 13.913 2.78 21.05.64 8.65 2.385 17.354 2.727 26.277 2.323 21.098 3.826 42.934 5.276 65.39l1.12-.037c29.795-1.06 59.39-2.379 88.726-4.064-11.557.69 27.605-1.658 16.048-.967 19.533-1.168 39.128-2.344 58.352-4.098-4.47-21.955-8.112-43.566-13.272-64.428-8.584-35.212-19.277-68.723-34.416-99.779zm-406.795 8.355c-16.001 38.78-28.638 81.853-38.084 127.95a1125.772 1125.772 0 00-6.33 31.962l1.144.072c10.771.68 21.578 1.317 32.422 1.908 44.22 2.397 88.58 3.973 133.338 4.692 1.67-20.401 2.66-40.304 4.603-59.545.184-8.222 1.49-16.29 1.955-24.274.273-8.841 1.947-17.495 2.159-26.037.78-7.997 1.783-15.593 2.185-23.326 1.16-7.953 1.752-15.891 2.348-23.559-42.45-1.08-84.67-4.03-126.877-8.812-2.955-.335-5.91-.679-8.863-1.031z" fill="#d32943" stroke="#d32943"/><path d="M300.483 318.322c-.511 5.935.726 12.05.963 18.063a3774.843 3774.843 0 006.086 65.43c2.03 20.741 12.53 40.968 27.655 53.785 11.276 9.818 25.323 15.138 39.355 15.51 8.177.335 16.445 1.349 24.52-.407 15.494-2.732 29.306-13.1 36.328-27.086 4.366-7.89 5.642-17.039 6.304-26.07-1.388-26.723-3.922-54.407-4.023-80.942-.387-.096-1.187-.275-1.574-.37-13.67-2.334-27.307-3.655-40.797-5.544-32.19-4.176-63.758-8.406-94.817-12.369zm1682.692.305l-.818.101c-37.659 4.814-78.612 9.685-117.5 14.31-6.444.793-12.933 1.014-19.301 3.112.114 2.87-.144 5.778-.32 8.68-1.48 24.115-2.93 48.561-5.243 72.723.173 3.024.455 6.033.604 9.082.397 9.292 3.561 18.157 8.43 25.783 7.553 11.745 20.17 20.093 34.04 22.387 8.745 1.602 17.617.1 26.446 0 25.315-.735 48.939-20.168 59.31-46.184 3.366-8.148 5.276-16.854 6.047-25.525 2.814-27.644 6.197-56.67 8.305-84.47zM1701.94 351.63c-36.355 4.357-74.517 8.348-112.188 12.191-73.453 7.46 36.5-3.706-36.953 3.754.097 22.326-.464 45.352-1.295 68.195a75.458 75.458 0 001.51 10.547c1.5 7.19 5.706 13.744 10.69 19.721 7.21 7.4 17.015 13.387 28.278 16.461.954.26 1.92.5 2.893.717 7.786 1.812 16.003 2.334 24.166 1.845 9.555-.472 19.306-.585 28.55-3.12 14.977-3.733 28.085-12.174 37.645-22.913 8.9-10.735 14.354-23.631 14.782-36.537 1.411-22.699 2.311-45.6 2.718-68.04-.259-.96-.517-1.9-.797-2.821zm-1119.874 2.93c-.076 25.633.927 52.064 2.307 78.21 2.904 9.739 7.127 19.432 14.3 27.74 8.04 8.742 18.27 16.205 30.368 20.575 8.144 2.973 16.89 4.71 25.703 5.182 10.511.554 21.198 1.626 31.596-.08a72.596 72.596 0 0015.72-4.07c7.456-2.86 14.131-6.87 19.516-11.698a52.086 52.086 0 001.973-1.861c6.813-6.884 10.41-15.179 12.867-23.518-.265-23.894-.924-48.508-.76-71.68a87.622 87.622 0 00-.797-1.736c-3.3-.313-6.596-.632-9.886-.955a3485.652 3485.652 0 01-19.375-1.96c-42.505-4.4-82.942-9.31-123.532-14.15zm812.938 26.556c-19.224 1.754-38.82 2.93-58.352 4.098-2.176.133-13.873.833-16.049.967-29.334 1.685-58.93 3.004-88.724 4.064-.77 9.014.495 18.076-.174 27.275.287 13.157-.108 26.507.107 39.997 2.883 7.893 6.857 15.79 14.422 22.36 12.415 10.963 32.355 17.958 53.206 18.347 7.911.113 15.802-.26 23.695-.553a106.33 106.33 0 0015.039-1.785c6.813-1.307 13.39-3.26 19.502-5.772 15.026-6.421 26.206-16.538 32.912-27.738 1.676-4.15 3.266-8.305 4.486-12.5.866-10.458.206-20.8.69-31.098.556-10.6-.297-21.582.26-32.181-.16-1.859-.54-3.683-1.02-5.48zm-497.752 4.133c-.523 18.658-.069 37.717-.135 57.064.148 3.957.484 7.928.51 11.903 3.029 8.285 7.254 16.61 14.994 23.67 4.148 3.866 9.095 7.308 14.606 10.285 4.676 2.523 9.751 4.71 15.084 6.535 5.754 1.712 11.795 2.963 17.916 3.906 8.744 1.175 17.687 1.076 26.548 1.301 7.355.179 14.74-.156 21.877-1.3 16.174-2.416 30.622-8.88 40.569-17.432 7.771-6.58 11.79-14.522 14.746-22.4.33-12.1-.006-24.893.32-36.993-.54-10.088.524-20.06-.166-29.916l-1.11-.023a3499.443 3499.443 0 01-133.337-4.692 3783.32 3783.32 0 01-32.422-1.908z" fill="#e84e3c" stroke="#e84e3c"/><path d="M1744.944 130.191c-42.988 11.013-88.002 22.269-131.136 32.71 26.562 35.552 46.699 73.237 62.295 112.495 9.95 24.693 18.032 50.409 25.837 76.235.28.92.538 1.862.797 2.82.425-.88.88-1.754 1.373-2.625 6.798-1.256 13.63-1.644 20.422-2.488 31.365-3.528 62.144-7.124 92.614-10.635 9.174-.845 18.301-2.502 27.388-2.943.367 2.997.691 6.01.701 9.07.177-2.902.435-5.81.32-8.68-2.709-6.135-4.259-12.753-6.388-19.115-20.975-65.385-48.32-129.059-94.223-186.844zm-1201.402 6.61c-43.16 48.84-71.578 102.61-93.12 159.275-5.154 13.196-9.49 26.75-14.325 40.158.394.098 1.18.274 1.574.371 2.355.344 4.715.393 7.082.61 27.854 3.553 43.546 5.593 71.4 9.146 21.357 2.727 42.957 5.44 64.88 8.08 20.865-65.764 47.99-127.505 93.204-181.54-37.88-9.758-75.35-20.226-112.882-30.98.651.189-18.465-5.308-17.813-5.12zm937.58 56.004c-44.443 9.125-88.931 17.377-133.805 24.105 15.139 31.056 25.832 64.567 34.416 99.78 5.16 20.86 8.802 42.472 13.272 64.427.48 1.798.86 3.622 1.02 5.48.229-1.759.597-3.497.953-5.24 49.308-3.949 99.331-8.077 146.562-12.84 2.77-.28 5.538-.56 8.3-.845-3.456-14.123-7.206-28.078-11.308-41.78-9.828-32.79-21.793-64.545-37.1-94.568-6.577-13.11-14.51-25.916-22.31-38.52zm-674.273 10.85c-16.998 24.733-30.354 51.116-42.055 78.907-11.614 28.322-21.915 58.092-29.934 89.063.266.563.532 1.142.797 1.736 1.587-.62 3.292-1.224 5.268-.949 50.749 5.046 102.284 9.5 155.183 12.766a1125.772 1125.772 0 016.33-31.961c9.447-46.098 22.084-89.172 38.085-127.951-44.866-5.39-89.367-12.736-133.674-21.612zm405.26 28.282a1479.844 1479.844 0 01-62.36 3.041c-6.096.168-12.193.298-18.29.387a1434.5 1434.5 0 01-55.196-.256c-.596 7.668-1.188 15.606-2.348 23.559-.402 7.733-1.406 15.33-2.185 23.326-.212 8.542-1.886 17.196-2.159 26.037-.464 7.984-1.77 16.05-1.955 24.272-1.942 19.241-2.934 39.146-4.603 59.547l1.11.023c22.91.369 45.824.492 68.763.371a3416.178 3416.178 0 0097.873-1.96c-1.45-22.457-2.953-44.293-5.276-65.392-.342-8.922-2.087-17.626-2.726-26.277-.49-7.136-2.15-14.103-2.781-21.049-.546-6.95-2.278-13.72-3.192-20.46-.997-8.588-3.423-16.91-4.676-25.169z" fill="#ede5da" stroke="#ede5da"/><path d="M1844.534 335.76c-9.087.441-18.214 2.098-27.388 2.943-30.47 3.511-61.25 7.107-92.614 10.635-6.791.844-13.624 1.232-20.422 2.488-.493.87-.948 1.746-1.373 2.625a1556.618 1556.618 0 01-2.718 68.041c-1.196 12.202 1.059 24.625 8.359 34.77 7.444 11.205 20.265 19.375 34.592 22.265 8.25 2.07 16.888 1.501 25.39.969 17.702.25 35.547-5.998 48.727-18.1 12.684-11.646 21.917-28.001 22.906-44.843 2.313-24.161 3.763-48.608 5.242-72.723-.01-3.06-.334-6.073-.7-9.07zm-1406.863.845c.101 26.535 2.635 54.22 4.023 80.942 1.608 19.293 12.714 37.924 28.707 49.894 10.137 7.194 22.101 11.845 34.514 13.203 2.99.132 6.001.338 9.01.532 5.52.356 11.04.672 16.576.455 17.968-.825 34.838-9.578 44.467-22.549 5.65-7.877 8.601-16.972 9.406-26.31-1.38-26.147-2.383-52.578-2.307-78.211l-1.035-.12c-21.922-2.64-43.522-5.353-64.879-8.08-20.71-2.635-50.69-6.511-71.4-9.146-2.367-.217-4.727-.266-7.082-.61zM1552.8 367.576l-.96.096c-2.762.285-5.53.566-8.3.846-47.23 4.762-97.254 8.89-146.562 12.84-.356 1.742-.724 3.48-.954 5.24-.552 10.899.293 21.282-.26 32.181-.483 10.298.179 20.64-.687 31.098 1.185 6.692 2.911 13.486 7.488 19.435 7.884 11.387 22.694 20.227 39.922 23.739 10.46 2.214 21.475 1.895 32.297 1.191 7.024-.298 14.139-.553 20.96-2.156 17.815-3.749 33.65-12.826 43.56-24.973a53.216 53.216 0 006.431-9.379c3.765-7.025 5.703-14.573 5.77-21.963.83-22.843 1.392-45.87 1.295-68.195zm-812.604 4.772c-1.671-.06-3.15.471-4.539 1.013-.164 23.172.495 47.786.76 71.68 2.265 8.525 5.7 17.105 12.318 24.603 12.861 15.202 35.547 25.645 59.555 26.694 6.999.264 14.04.656 21.096.836 22.62.317 44.653-7.882 56.715-20.807 6.509-6.602 9.492-14.407 11.527-22.15-.026-3.975-.362-7.946-.51-11.903.067-19.347-.388-38.406.135-57.064l-1.145-.072c-52.9-3.267-104.434-7.72-155.183-12.766a7.142 7.142 0 00-.729-.064zm491.684 17.898l-1.121.037a3416.178 3416.178 0 01-97.873 1.961c-22.94.121-45.852-.002-68.764-.371.69 9.857-.373 19.828.166 29.916-.33 12.562.006 24.428-.32 36.99 2.223 7.697 5.535 15.45 12.308 22.16 12.191 12.485 33.43 21.044 56.143 22.245 1.876.098 3.76.148 5.65.144 4.983-.105 10.007-.029 15.02-.053 7.487-.034 14.942-.293 22.185-1.709 18.192-3.121 34.196-11.075 44.233-21.51 6.807-6.828 10.16-14.722 12.306-22.538-.215-13.49.18-26.84-.107-39.997.67-9.199-.596-18.261.174-27.275z" fill="#fff" stroke="#fff"/><path d="M441.694 417.547c-.662 9.031-1.938 18.18-6.304 26.07-7.022 13.986-20.834 24.354-36.328 27.086.534 16.315.478 32.637.892 48.983.258 21.215.442 41.49.518 62.79.456 128.203-12.478 327.942 31.176 451.319 2.656 9.097 11.452 16.236 21.359 18.836 8.35 2.379 17.159 1.908 24.937-.293 27.943-7.188 55.855-14.154 83.942-20.838 60.969-14.51 121.735-27.444 183.586-38.193a2498.883 2498.883 0 0118.197-3.094c62.27-10.348 124.438-18.222 187.408-23.363 60.367-4.93 120.563-7.273 181.145-7.002a2112.8 2112.8 0 0118.19.16c55.174.722 110.045 3.59 164.993 8.396 64.842 5.672 129.06 13.978 193.244 24.393 14.882 2.415 29.74 4.94 44.58 7.566 88.325 15.63 175.433 34.741 262.665 55.4 8.242 2.102 17.532 1.953 25.918-1.16 8.78-3.157 16.03-10.13 18.074-18.582 36.856-123.35 21.784-326.85 21.857-453.439.012-20.376.16-40.16.416-60.488.36-15.781.432-31.54.908-47.29-13.87-2.293-26.487-10.641-34.04-22.386-4.869-7.626-8.033-16.49-8.43-25.783-.15-3.049-.43-6.058-.604-9.082-.989 16.842-10.222 33.197-22.906 44.843-.11 13.54-.419 33.16-.545 47.176v.168c0 .21-.01.638-.01.639v.156c0 .26-.01.634-.01.889v-.002c-.27 24.027-.443 46.762-.467 70.9-.099 100.234 6.918 264.976-8.404 362.533-1.02 6.306-1.617 12.963-5.355 18.47-5.928 9.445-17.843 15.237-29.885 14.747-5.316-.252-10.505-1.553-15.698-2.443-60.947-11.198-122.444-21.4-185.205-30.121a3516.712 3516.712 0 00-45.525-6.028c-65.77-8.254-132.244-14.698-200.037-18.99-57.443-3.636-115.213-5.751-173.504-6.217a3003.64 3003.64 0 00-19.227-.092 3073.562 3073.562 0 00-191.37 5.608c-66.358 4.009-131.404 10.166-195.936 18.336-6.288.796-12.566 1.61-18.832 2.445-63.968 8.523-126.021 18.883-187.59 30.625-3.758.717-7.512 1.44-11.262 2.166-17.993 3.909-37.95-7.11-40.914-23.504-21.18-100.764-15.874-262.332-16.252-367.502-.09-24.954-.255-46.78-.469-71.638 0 .004-.007-.26-.011-.495-.034-14.287-.399-28.572-.178-42.78-15.994-11.972-27.1-30.602-28.707-49.895z" fill="#2f2f2f" stroke="#2f2f2f"/><path d="M1700.019 422.492a63.768 63.768 0 00-.223 3.22 50.78 50.78 0 00.223-3.22zm-.223 3.22c-1.15 11.817-6.399 23.475-14.559 33.317 7.721-.394 15.515-.435 23.141-1.767-6.658-9.253-9.108-20.402-8.582-31.55zm-1115.422 7.06c-.805 9.338-3.756 18.433-9.406 26.31 7.876.551 15.741 1.203 23.707 1.43-7.174-8.31-11.397-18.002-14.3-27.74zm967.13 3c-.066 7.39-2.004 14.937-5.769 21.962a53.216 53.216 0 01-6.431 9.38c2.162.073 4.324.07 6.488.015 5.998-.154 11.95-.705 17.912-1.09-4.983-5.977-9.19-12.532-10.69-19.72a75.443 75.443 0 01-1.51-10.548zm-815.087 9.269c-2.456 8.34-6.054 16.634-12.867 23.518 8.385.486 16.756 1.43 25.185 1.085-6.619-7.499-10.053-16.078-12.318-24.603zm161.211 9.174c-2.035 7.743-5.018 15.55-11.527 22.152 8.714 1.301 17.673 1.04 26.521 1.52-7.74-7.06-11.965-15.387-14.994-23.672zm334.185 3.303c-2.147 7.816-5.5 15.71-12.306 22.539 8.884.664 17.826-.03 26.728-.178-7.565-6.57-11.539-14.468-14.421-22.361zm-167.845 1.263c-2.956 7.879-6.975 15.82-14.746 22.4 9.013-.044 18.071.58 27.054-.242-6.773-6.71-10.086-14.46-12.308-22.158zm326.62 3.596c-6.705 11.2-17.885 21.317-32.911 27.738.23 13.43.074 26.973.178 40.582l-.013.666-.039 55.57c0 42.189.184 100.299-.36 142.211l-19.474-.214c-60.333-.61-122.268-.88-184.445-.825l-20.586.034c-44.123.085-88.585.317-132.453.728-12.964.056-25.899.357-38.81.332-1.059-45.032-1.444-95.253-1.495-140.619-.019-16.981.003-34.246.069-51.033-6.15-1.357-12.21-2.877-18.319-4.276a7647.92 7647.92 0 00-.064 55.114c.096 44.718.564 96.642 1.41 141.033l-14.848.209c-70.505.995-138.908 2.479-205.445 4.752a6055.573 6055.573 0 00-116.262 5.074c-25.567 1.303-49.5 2.881-74.222 4.336-.788-44.344-.694-116.582-.815-161.193.04 9.267-.243-64.316-.203-55.05-6.458-.21-10.872-.335-17.33-.546 5.23.173 12.1.372 17.328.545-.104-9.88-.1-19.74-.154-29.574-.059-5.452.444-10.916-.824-16.34-5.536.217-11.057-.1-16.576-.455-3.01-.194-6.02-.4-9.01-.532.106 15.615.19 30.34.254 46.038h.002c.126 19.175.224 36.528.29 55.77.163 46.963-.108 135.619.805 182.18.017 0 9.03-.706 9.047-.706 60.76-4.684 122.939-8.498 188.83-11.399 6.44-.282 12.902-.553 19.387-.816 66.56-2.698 134.875-4.526 205.315-5.668 67.196-1.109 136.042-1.704 204.205-1.84l20.552-.03c62.11-.039 123.89.343 184.194 1.204 17.674.253 35.226.559 52.662.918.715-45.354.58-114.03.59-159.892 0-24.475 0-55.566-.07-79.584.089-.33.25-.967.34-1.297-.776-14.467.077-28.913-.729-43.145zM941.932 533.27c6.109 1.399 12.17 2.917 18.318 4.274-.19-13.068.322-26.044-.021-38.932-6.121-.943-12.162-2.194-17.916-3.906-.466 12.519-.3 25.174-.391 37.883l.01.681zm801.039-53.744c-1.108 5.721-.726 11.482-.778 17.217h.01c-.086 9.003-.113 18.015-.257 27.033v.787s0 0 0 0c-.107 19.627-.172 38.07-.172 57.766-.01 61.848 1.126 123.978.511 185.533a6613.806 6613.806 0 00-150.959-9.584 6201.119 6201.119 0 00-46.205-2.226 7075.872 7075.872 0 00-71.017-2.782c.843-46.334.68-121.358.717-168.218l.027-49.852c-.03-13.716 0-27.378-.06-40.959-10.822.704-21.836 1.023-32.296-1.191v0c-.109 13.261-.023 26.443 0 39.845l-.023 52.674c-.06 93.657 2.089 227.837-11.414 313.328 34.21 2.8 68.033 6.026 101.545 9.653a3860.317 3860.317 0 0145.847 5.248c56.942 6.864 112.73 14.832 167.727 23.676a370.5 370.5 0 0010.82 1.652c16.898-97.312 10.656-256.018 10.748-356.84.017-18.877.106-36.917.252-55.74 0 0 0 0 0 0 .082-15.385.256-30.736.375-46.051-8.502.532-17.141 1.1-25.39-.969z" fill="#5895cb" stroke="#5895cb"/><path d="M1593.37 494.021a4.68 4.68 0 00-1.38.133c-.65.17-1.26.507-1.796 1.073-6.263 5.553-11.167 12.004-17.304 17.644-9.186 9.963-18.907 19.809-27.028 28.096a1488.34 1488.34 0 00-4.326 4.424c-7.034 7.05-13.926 14.269-21.191 21.132a21.03 21.03 0 00-4.049 5.371c4.492-.282 6.546-3.884 9.32-6.197 6.662-6.923 13.455-13.82 20.24-20.713 9.644-9.812 19.278-19.615 28.696-29.652 5.366-5.268 12.36-13.29 17.435-18.26.233-.224.467-.448.704-.67 11.564 4.598 22.402 10.07 33.576 15.186 19.098 9.362 23.623 11.44 35.107 16.857 9.59 5.088 19.541 9.647 28.967 14.955 2.13 1.023 4.386 1.828 6.68 2.59a200.35 200.35 0 01-.776-3.668c-6.262-1.722-11.502-5.362-17.228-8.039-14.365-7.228-25.309-12.218-40.47-19.88-13.516-6.589-27.402-12.826-41.114-19.175-1.19-.56-2.653-1.145-4.063-1.207z" fill="#c3c3c3" stroke="#c3c3c3"/><path d="M1696.246 542.322c1.37.11 2.777.176 4.194.268 1.944 13.303 3.95 26.468 5.998 39.867 1.67 10.924 3.379 22.075 5.021 33.066-38.666 4.64-78.994 9.062-119.564 13.465-119.482 12.964 78.518-8.517-40.965 4.447-1.7.15-3.4.323-5.1.509-7.509.82-14.967 1.864-22.605 2.169-2.917-17.303-6.05-34.527-9.04-51.667a2577.636 2577.636 0 01-2.86-16.675c2.996-.423 6.002-.847 9.02-1.247a21.029 21.029 0 00-4.05 5.37c4.492-.282 6.548-3.884 9.322-6.197 6.81-.561 13.503-1.537 20.222-2.433 1.738-.232 3.475-.459 5.214-.67-14.74 1.951 55.59-7.375 40.85-5.424 33.326-4.453 66.376-8.983 98.438-13.77 2.13 1.023 4.387 1.827 6.68 2.59-.272-1.235-.534-2.46-.775-3.668z" fill="#a82f40" stroke="#a82f40"/><path d="M1536.459 574.742l9.371-1.215c15.479-2.015 30.836-4.038 46.06-6.072a10649.82 10649.82 0 0097.162-13.417c2.276-.602 5.725.03 5.737 2.6 1.634 10.917 2.224 14.94 3.858 25.858a3693.265 3693.265 0 003.163 20.748c.593 2.065-.179 5.13-3.051 5.185a15711.191 15711.191 0 01-106.871 13.267c-.826.1-45.235 5.425-46.06 5.525l-11.588 1.374c-2.456.532-6.119-.125-6.14-2.549a7395.685 7395.685 0 00-6.03-33.355c-.428-2.796-1.033-5.565-1.577-8.34-.554-2.823-1.042-5.649-1.21-8.505 5.77.683 11.504-.299 17.176-1.104zm136.929-15.811c-26.66 3.782-53.987 7.452-81.5 11.093-10.485 1.387-35.574 4.687-46.06 6.074 5.141-.677-28.038 3.698-22.897 3.021.281 1.728.57 3.456.863 5.184 2.357 13.896 5.073 27.819 7.556 41.806 4.887-.156 9.67-.877 14.476-1.47.987-.121 1.975-.238 2.963-.342a16902.383 16902.383 0 00150.054-18.58c-.114-4.165-.965-8.263-1.577-12.368a3993.92 3993.92 0 00-1.627-10.837c-1.311-8.661-2.627-17.286-3.858-25.913-6.17.312-12.247 1.56-18.393 2.332z" fill="#dc8b96" stroke="#dc8b96"/><path d="M1500.79 658.683c7.027-1.194 14.712.75 19.527 4.943 4.936 4.141 6.772 10.394 4.61 15.756-2.017 5.263-7.713 9.438-14.56 10.67-7.206 1.397-15.378-.606-20.41-4.936-5.188-4.28-6.96-10.73-4.384-16.156 2.294-5.154 8.287-9.2 15.218-10.277z" fill="#5895cb" stroke="#5895cb"/><path d="M485.884 766.324c6.76-.668 13.557-1.117 20.382-1.692-.017 0 9.064-.707 9.047-.706 60.76-4.684 122.939-8.497 188.83-11.398 0 0 0 0 0 0 6.44-.282 12.902-.555 19.387-.818 66.56-2.698 134.875-4.525 205.314-5.667 67.196-1.109 136.043-1.704 204.206-1.84l20.552-.032s0 0 0 0c62.109-.038 123.89.345 184.194 1.206 17.674.253 35.225.558 52.661.917 7.685.19 15.349.272 22.984.547a1100.79 1100.79 0 01-.71 30.764 6726.294 6726.294 0 00-75.467-1.967c-60.2-1.235-121.619-1.846-183.544-1.862 0 0 0 0 0 0-6.818-.001-13.641.01-20.47.02-68.029.118-136.304.908-203.425 2.415-70.217 1.557-138.367 4.006-204.91 7.487 0 0 0 0 0 0-6.482.34-12.942.69-19.381 1.052 0 0 0 0 0 0a5111.086 5111.086 0 00-218.786 17.009c-.474-11.764-.738-23.607-.864-35.435z" fill="#335574" stroke="#335574"/><path d="M1183.247 800.746c4.204 16.866 7.151 33.503 6.488 49.938-1.72-.793-3.425-1.606-5.175-2.34 1.441 1.48 3.593 2.744 4.408 4.453-.032 1.613-.41 3.226-.567 4.844-1.398-2.357-4.058-4.29-5.457-6.647-1.683-4.823-1.389-9.87-3.335-14.728-2.774-7.331-7.04-14.601-13.336-21.116 1.55 4.971 5.239 9.613 5.539 14.701 1.802 7.524 4.771 14.831 4.814 22.336-2.503-3.375-4.71-6.885-7.758-10.119-1.425-1.176-.243-2.61.102-3.87-1.096.198-2.18.412-3.242.64-2.53-1.838-4.89-3.792-7.65-5.49 1.853 2.197 3.947 4.3 5.784 6.496a262.563 262.563 0 01-3.826 3.443c-1.405-1.234-2.793-2.485-4.34-3.637.739 1.71 1.887 3.34 2.584 5.065-1.502 3.53-3.717 6.93-4.964 10.484l-.096.281c-2.051-1.073-5.046-1.795-5.735-3.586-2.417-5.944-5.5-11.946-10.724-17.261.777 3.64 2.54 7.136 3.423 10.734 2.559 9.324 3.489 18.703 1.873 27.858-2.45-.01-4.89-.025-7.32-.076-.32-1.075-.75-2.13-1.283-3.163-3.009-5.823-9.248-10.912-16.79-14.869-.955 3.102-3.098 6.042-3.019 9.227 1.335-2.39 2.427-4.87 4.326-7.135 6.476 4.516 10.636 10.152 12.858 15.943-9.289.108-18.607.093-27.895.108.734-1.458 1.406-2.955 2.795-4.23.345 1.216.611 2.45.944 3.683.425-4.67 2.516-10.303-3.045-14.23.84 2.398 2.435 4.673 2.806 7.132-1.652-1.02-2.912-2.21-4.111-3.424-2.817 3.478-4.02 7.302-4.115 11.141-.709.013-2.499.038-3.207.051 3.134-7.983 2.614-16.545-1.334-24.592-.979-1.766-1.607-3.618-1.264-5.498-11.283 2.188-17.138 9.81-17.603 16.73 4.953-5.038 8.631-11.014 16.292-14.835 2.877 9.415 3.9 18.933 2.737 28.22-.631-.01-2.162-.048-2.793-.06-.598-3.175-2.247-6.427-.426-9.609.265-4.435-2.211-8.907-5.805-12.746 1.334 4.655 4.398 9.049 4.727 13.756-3.296-1.17-4.7-3.691-4.559-5.983-3.816 1.294-7.337 3.087-9.353 5.545-1.7 2.236-1.294 4.774-1.201 7.164a202.43 202.43 0 012.685-2.023c.228.949.501 1.92 1.133 2.826.078-2.01-.6-4.065.273-6.039.46-.062 1.37-.19 1.819-.252a38.341 38.341 0 01-.4 5.326c1.77-.189 3.564-.337 5.37-.441.074-1.383.01-2.979 2.32-3.682.754 2.03 1.287 4.09 1.753 6.149-10.923.307-21.833.397-32.754.562.298-1.771.94-3.563.674-5.347-.536-2.36-2.865-4.304-4.713-6.313.35-.406 1.006-1.14 1.355-1.547a96.467 96.467 0 003.303 2.377c.158-1.965.555-4.09-1.078-5.867-3.174-3.89-8.413-6.966-14.078-9.432 3.85 3.698 8.239 7.115 11.297 11.08-1.02.678-2.017 1.362-3 2.059-4.516-2.023-9.137-4.063-14.358-5.314 4.165 2.197 8.74 4.085 12.112 6.812-1.99 2.653-3.546 5.45-3.649 8.395 1.89-2.153 3.479-4.414 5.526-6.524 3.358 2.789 4.273 6.358 5.037 9.701-4.443.085-1.911.038-6.354.123 1.189-1.477 2.48-2.945 3.578-4.453-3.369.914-5.655 2.743-7.775 4.535.189-.01-3.236.14-3.047.13.307-2.425.936-4.937-.129-7.335-1.72-4.084-5.955-7.504-10.586-10.492 4.313 5.612 7.145 11.718 6.549 17.902a474.25 474.25 0 00-6.74.186c-2.96-2.24-6.414-4.211-10.221-5.877a122.64 122.64 0 012.186-3.816c4.694 1.91 5.709 5.746 8.863 8.46 1.345-4.812-4.593-8.44-10.02-11.18.985 2.306-.946 4.445-2.195 6.528-1.481-1.872-2.735-3.801-4.36-5.627a58.529 58.529 0 012.518 10.221c.717-1.27 1.336-2.566 2.127-3.814 1.3 1.49.116 3.175.078 4.767.841-1.086 1.537-2.209 2.295-3.308 2.14.965 3.703 2.329 5.238 3.673-4.01.149-8.001.2-12.003.3-1.137-3.018.235-6.51-3.51-8.985.53 1.397 1.212 2.766 1.81 4.176-1.283-.37-2.564-.751-3.841-1.141 2.5 1.686 4.02 3.81 4.859 6.047-3.03.152-6.064.266-9.088.35 1.42-1.465 2.863-2.917 4.082-4.454-3.39.584-5.462 2.377-6.74 4.332-.658.104-2.053.31-2.711.409 1.23-3.14 3.814-5.92 5.736-8.903-5.342 1.562-7.438 5.33-7.219 8.824-3.69.093-7.376.218-11.05.356-.992-4.906-6.906-8.62-13.61-10.77 1.145.96 2.387 1.885 3.627 2.815-.89 1.65-1.672 3.33-1.992 5.07 1.138-1.451 2.091-2.96 3.219-4.414 3.191 2.057 5.18 4.715 6.183 7.506-2.65.096-5.283.106-7.91.096.217-.883.46-1.754.68-2.625-1.078 1.068-2.073 2.168-3.143 3.242.133-3.242-.68-6.545-3.53-9.324.822 3.04 2.016 6.023 2 9.11-.614.018-1.654.058-2.267.077.404-2.272-.428-4.563-2.822-6.308.512 1.261 1.166 2.507 1.801 3.771-.716-.145-2.014-.401-2.73-.547.93 1.029 1.828 2.07 2.718 3.137l-6.9.299c.552-1.912 1.225-3.82 1.627-5.748-2.267 1.723-3.244 3.925-4.985 5.842-2.128.308-.184.027-2.312.336.053-9.148-3.11-18.451-9.86-26.78 3.35 8.904 5.915 17.803 6.641 26.744l-5.922.295c-2.199-3.266-5.524-6.103-8.84-8.941-.828-2.626.67-5.387 1.747-7.955 3.61 5.306 5.553 10.946 8.54 16.3.104-3.82-.926-7.68-3.341-11.214-1.338-2.208-3.505-4.164-4.75-6.393.13-1.632 1.01-3.183 1.722-4.73-2.076 1.106-4.304 2.078-6.464 3.105-1.435.682-2.839 1.39-4.153 2.176-1.19-2.161-2.26-4.35-3.68-6.459.493 2.655 1.748 5.226 2.008 7.894-.35 1.817-1.683 3.477-2.58 5.188-1.793-2.09-3.19-4.311-5.115-6.355 1.557 4.138 5.354 8.19 3.363 12.525-4.68-2.828-6.481-6.891-9.095-10.586 1.759-2.17 3.809-4.24 5.687-6.373-3.115.887-5.747 2.299-8.207 3.793-1.587-1.281-3.136-2.577-4.844-3.764.635 2.616 4.11 5.182 1.924 7.83-1.474 2.443-2.324 5.011-3.025 7.582-3.864-3.134-8.252-6.09-11.196-9.7-2.11-2.42-4.5-4.742-7.35-6.804 3.51 6.3 7.132 12.552 8.49 19.145-2.155-.553-4.25-1.156-6.41-1.666 2.325 1.345 4.965 2.47 6.923 4.074.528 1.33.643 2.72.9 4.09-2.34.165-4.68.325-6.996.5.165-6.726-6.571-12.133-13.392-16.682 2.035-1.582 4.187-3.094 6.324-4.625-9.579 1.827-18.319 6.055-22.53 12.21-2.443 4.029-8.146 6.515-10.744 10.482-.58-2.076-2.659-4.182-1.433-6.319 2.494-5.022 5.077-10.098 8.713-14.859 3.138-4.267 7.348-8.096 11.476-11.967-8.121 1.662-14.077 6.347-17.058 11.574-3.126 4.924-3.71 10.297-4.352 15.514-5.488-3.667-6.31-9.107-9.947-13.566-4.076-5.236-9.424-10.054-15.664-14.196 2.843 4.856 6.291 9.525 8.527 14.502-1.92-.904-3.788-1.835-5.723-2.705 3.067 3.872 7.01 7.395 9.079 11.586 1.703 4.256 2.307 8.676 2.566 13.04a441.73 441.73 0 01-8.783.736c-3.263-2.91-.987-6.72-3.01-9.94-2.74-5.24-8.671-9.23-14.574-12.877 1.546-3.364 4.364-6.343 6.24-9.62-4.734 1.43-7.165 4.722-9.217 7.806-1.493-.615-2.978-1.232-4.463-1.803 1.202 1.166 2.48 2.31 3.75 3.465-.737 3.078-1.223 6.177-1.726 9.265-1.018-.513-2.586-.74-2.89-1.687-1.407-2.996-2.466-6.118-4.712-8.889-1.619-2.342-4.123-4.338-5.525-6.754 1.822-6.15 6.28-11.671 9.756-17.443-6.608 2.013-9.756 7.033-11.69 11.6-2.153 5.559-3.026 11.411-2.072 17.084 1.17-2.986 1.759-6.085 3.353-8.996 1.33 2.47 2.431 4.99 3.526 7.525-1.58 2.14-3.18 4.262-4.805 6.367-1.342-1.437-2.728-2.844-4.07-4.273-2.513-2.46-2.086-5.71-3.299-8.53-2.931-7.863-8.037-15.444-15.063-21.92 5.402 11.782 10.432 23.615 11.53 35.854a202.622 202.622 0 00-4.533-1.227c1.485.987 3.106 1.893 4.484 2.985 1.158 4 .107 8.114.416 12.138 1.16-1.666 2.1-3.39 3.096-5.107.449.745.911 1.49 1.388 2.254-2.027 1.94-4.126 3.842-5.98 5.87-1.015-1.2-2.598-2.016-4.192-2.772-.4-4.697-2.418-9.143-5.27-13.385 3.214-1.567 5.252-4.029 7.901-6.022-1.792.304-3.538.69-5.271 1.077-1.921-8.276-9.234-15.325-17.54-20.99 5.201 7.437 11.605 14.33 15.157 22.234-.938.41-1.873.83-2.795 1.263-4.725-3.95-10.146-7.674-16.805-9.875 4.994 3.643 10.24 7.13 14 11.516-3.032 3.777-6.336 7.747-5.869 12.275 2.989-2.856 4.98-6.19 8.29-8.88 1.586 2.095 2.734 4.34 3.615 6.636a308.257 308.257 0 00-5.336 2.256c-1.054-.367-2.066-.712-3.082-1.06.264.77.544 1.556.828 2.355-2.355 1.987-3.74 4.432-3.987 7.035-1.857-.854-3.721-1.695-5.56-2.533.68-2.745 1.744-5.647.394-8.373-2.293-5.114-8.448-8.462-14.166-11.525 1.604-5.736 5.833-10.81 9.639-15.91-7.811 2.276-10.657 8.49-12.584 13.915-.427-.01-1.503-.02-1.93-.03 2.486 2.835 1.155 6.247 1.395 9.45.025.34.07.677.137 1.01l.03-.082c.804-2.035 1.484-4.093 2.348-6.107 1.538 1.376 2.816 2.908 3.81 4.55-2.188 2.25-3.698 4.781-5.073 7.342-.1.185-.197.37-.295.555-1.442-1.071-3.667-1.971-3.504-3.683-.368-4.155-.99-8.376-3.313-12.225-.624-1.632-2.626-3.32-1.304-5.022 1.107-1.968 2.528-3.818 3.996-5.65 1.157-1.443 2.342-2.874 3.428-4.346a20.16 20.16 0 00-3.825 1.643c-2.862 1.597-5.127 3.754-7.068 6-2.69-2.489-5.041-5.205-8.057-7.494 1.764 3.882 4.63 7.48 5.727 11.513-.6 3.828-1.684 7.618-1.828 11.475-2.697-1.507-3.731-4.031-5.483-6.082l-.484-.736c-3.71-5.617-7.88-11.275-14.1-15.555 3.73 7.992 8.717 15.635 10.352 24.025-3.329-1.671-6.904-2.981-10.406-4.416-2.78-1.528-4.634-3.775-6.881-5.691.748-1.748 1.517-3.482 2.16-5.24-1.733.99-3.365 2.07-4.988 3.176a108.556 108.556 0 00-3.82-1.467c.852 1.088 1.79 2.164 2.742 3.23-1.228 2.99-2.354 6.004-3.051 9.088-1.662-.306-3.298-.647-4.924-.941 1.532.9 3.325 1.604 4.545 2.804.03 4.047-.52 8.112.486 12.108.842-3.45 1.238-6.957 2.256-10.389 6.145 2.66 9.526 7.742 12.867 12.254-1.188-.37-2.367-.743-3.537-1.084 1.566 2.202 3.194 4.383 4.604 6.654-1.105.177-2.205.37-3.283.569-.113-.894-.22-1.773-.333-2.643-1.567 1.053-3.028 2.185-4.505 3.322-.953-.491-1.893-.978-2.828-1.449.4-2.31.87-4.63 2.015-6.8.395-1.041 1.513-2.15.549-3.188-3.189 1.945-6.589 3.653-10.008 5.353-1.082-9.774-5.842-19.23-12.586-27.55-.783-1.2-2.29-2.366-1.654-3.825 2.045-7.678 6.098-14.958 10.012-22.203-7.662 3.126-10.987 9.838-12.889 15.965-2.424 7.36-2.062 14.93-2.316 22.373-1.703-1.112-3.593-2.28-4.016-4.078a87.305 87.305 0 00-19.633-35.367c8.577 19.982 15.186 40.56 16.342 61.453-2.485-.612-5.036-1.097-7.37-1.975-4.333-4.988-6.69-11.003-12.157-15.412.846-1.721 1.842-3.41 3.226-4.908 2.275 3.697 3.464 7.752 5.926 11.379.775-6.798-1.744-13.582-5.902-19.443-.969-1.512-2.271-2.914-2.788-4.577 1.735-4.477 4.946-8.499 7.368-12.765-4.948 1.856-8.304 5.36-11.137 8.969-2.793-2.548-5.325-5.32-8.496-7.56 1.698 3.862 5.421 6.995 6.672 10.968-1.08 3.894-2.332 7.77-3.073 11.71-3.138-1.663-6.484-3.074-9.562-4.786-2.967-3.975-5.583-8.145-8.525-12.145-.27-2.993 1.73-5.963 1.97-8.988-2.137 1.458-3.559 3.408-4.933 5.35-1.207-1.024-2.397-2.062-3.614-3.053.887 2.697 3.136 5.273 2.157 8.226-1.616 7.107-2.055 14.353-1.286 21.48-1.986-2.536-4.551-4.839-5.576-7.8-3.12-9.184-7.016-18.259-12.203-26.78 2.125 7.755 4.632 15.406 6.877 23.11-1.85-1.304-3.687-2.625-5.701-3.727 2.247 3.981 6.518 7.097 7.588 11.547 1.077 4.372 1.992 8.778 2.887 13.18-2.687-1.733-6.561-2.904-7.346-5.94-1.511-4.199-3.529-8.244-5.934-12.124-.585-1.233-1.684-2.4-1.566-3.77 1.115-2.112 2.692-4.023 3.969-6.06-2.235.97-4.397 2.066-6.506 3.22-1.259-1.488-2.469-2.984-3.74-4.441.781 1.972 1.536 3.647 2.318 5.619-6.536 6.235-9.524 14.399-10.318 22.459.14 3.055-3.514 4.561-5.645 6.592-1.083-3.837-3.079-7.46-3.383-11.444-2.458-19.662-12.596-37.947-25.191-53.965 4.876 13.161 9.809 26.295 13.281 39.81-2.199-2.172-4.248-4.464-6.775-6.349 4.256 9.675 10.367 18.935 11.535 29.461.956 8.198 2.68 16.552 1.619 24.788-1.224-3.422-1.889-7.035-3.973-10.174-3.727-5.748-9.096-11.27-8.949-18.248-2.147-14.493-12.437-26.576-23.504-36.803a194.77 194.77 0 00-2.514-2.283 363.694 363.694 0 002.764 4.558c7.072 11.487 14.645 22.754 19.79 35.112-4.818-3.96-9.446-8.228-15.13-11.213 3.1 4.518 7.532 8.218 10.397 12.892-3.613-3.328-7.414-6.554-11.496-9.423-3.84-2.7-7.939-5.091-12.387-6.965 4.425 3.768 8.965 7.545 13.105 11.625 3.962 3.903 7.55 8.075 10.334 12.783a128.807 128.807 0 00-3.084 2.17c-1.723-.667-3.393-1.427-5.087-2.149-2.249-.958-4.53-1.845-6.98-2.334 2.349 1.678 4.962 3.062 7.401 4.657.89.581 1.756 1.191 2.579 1.853-.303.631-.903 1.902-1.213 2.535-.196-.077-.39-.155-.584-.234-2.446-.998-4.782-2.165-7.168-3.22 1.936 2.125 4.79 3.635 6.293 6.046 0 2.408-.356 4.814-.282 7.232.776-1.688 1.448-3.407 2.131-5.109l.25-.621a33.043 33.043 0 013.424 3.574 148.8 148.8 0 00-2.52 2.63c-.63.672-1.254 1.35-1.874 2.032-.981-.282-1.955-.538-2.926-.787-1.262-6.559-5.44-12.652-11.873-16.129 2.428 4.572 5.546 8.927 6.613 14.004-1.28-.121-2.562-.231-3.844-.33 1.424.688 2.883 1.346 4.342 2.025.37 1.909.7 3.83 1.018 5.776-1.85.387-3.697.75-5.537 1.121-1.658-1.897-.949-4.133-.668-6.293-.407-2.596-2.846-4.41-4.487-6.42.543-1.745 1.118-3.462 1.532-5.207-1.22 1.262-2.29 2.637-3.342 4.041-2.14-.91-4.312-1.746-6.532-2.44.878 2.888 2.054 5.704 2.856 8.63-3.783-.306-5.636-3.515-8.287-5.455 2.023 3.077 4.226 6.062 6.242 9.164.02-.845.055-2.54.08-3.385 3.878 1.177 2.741 5.518 3.8 8.345.486-1.738.841-3.502 1.249-5.24 1.684 1.327 3.111 2.9 4.476 4.514-2.576.62-5.188 1.105-7.802 1.537-1.257-3.304-3.18-6.58-6.746-8.264 1.911 2.756 4.489 5.243 5.22 8.547-1.405.353-2.805.717-4.181 1.104 7.694 11.186 22.602 17.89 37.463 17.062a43.341 43.341 0 004.755-.527c60.252-11.142 120.514-21.135 183.083-29.342a2839.59 2839.59 0 0118.859-2.408c32.45-3.052 71.258-8.086 92.141-10.074a3026.302 3026.302 0 01104.17-7.989 3139.293 3139.293 0 01191.824-5.529c6.427.01 12.851.04 19.273.088 58.43.453 116.329 2.53 173.883 6.104 12.593.782 25.152 1.636 37.682 2.564 17.512 1.327 35.43-5.387 43.324-16.338-2.15-.24-4.305-.448-6.442-.646 1.047-1.232 2.104-2.467 3.01-3.737-3.526.43-4.795 3.424-8.361 3.559 1.495-2.958 3.984-5.57 6.265-8.27-.629.014-1.915.031-2.554.041a188.627 188.627 0 011.898-3.021l-3.164-.012c2.504-4.117 6.587-7.566 10.014-11.344-2.286.593-4.476 1.462-5.928 2.856-5.008 4.393-5.503 10.239-9.433 14.972.91-2.833 1.058-5.738 1.613-8.615 1.053-2.658 3.334-4.998 4.666-7.598-2.117.962-4.065 2.091-6.012 3.215-3.41-4.096.92-8.192 2.813-12.09 2.992-5.727 7.773-10.86 11.634-16.34-3.116.774-5.62 2.374-7.39 4.294-5.162 5.413-7.286 11.873-9.358 18.068-.603-.094-1.605-.244-2.209-.338.729 4.16 2.733 8.463.707 12.559-1.72 3.556-1.98 7.323-2.386 11.011-.713-.164-1.509-.355-2.221-.52-.793-2.581-2.861-5.351-1.287-7.964.602.851 1.232 1.72 1.869 2.596-.6-6.3 2.411-12.356 2.71-18.682-.208-9.093-3.036-18.242-8.353-26.728 2.392 11.052 3.882 22.136 2.371 33.064l-2.82-.879c2.145 3.052 2.56 6.45 1.225 9.701-1.714-1.173-3.389-2.357-5.227-3.408 1.354 1.86 3.205 3.549 4.264 5.51.076 1.968-.956 3.87-1.463 5.797 1.1-.73 2.21-1.448 3.367-2.14.197.99.41 2.013.64 3.026a423.872 423.872 0 00-9.173-.543c3.24-9.925-1.722-20.997-12.906-28.023 1.881 2.599 4.252 5.035 5.88 7.717 4.045 6.357 5.353 13.34 4.823 20.13-7.892-.463-12.182-.78-20.074-1.243.477-1.014.95-2.026 1.412-3.03-3.043.939-5.413 3.083-9.06 2.688 1.836-3.476 4.873-6.612 6.872-10.076-5.469 1.941-8.411 5.808-9.828 9.66-1.45-.044-2.9-.08-4.35-.106 6.288-10.17 3.922-21.759-2.867-31.822a50.407 50.407 0 00-1.33-1.875c.397 1.486.762 2.98 1.094 4.482 2.137 9.71 2.716 19.46.2 28.944l-3.382-.13-2.525-.093c-1.539-5.764-5.32-11.585-12.533-15.277 4.04 4.739 8.23 9.535 9.16 15.01-8.938-.297-17.742-.917-26.68-1.214 3.359-1.278 3.735-3.918 4.96-6.093 1.903-3.967 5.016-7.628 7.257-11.547-8.25 3.376-10.087 10.276-10.102 16.1-4.443.257-8.785 1.068-13.257 1.095-.081-2.079 2.416-3.26 4.865-4.22l1.693 1.662c3.01-3.645 4.657-7.655 6.133-11.704 2.145-.629 4.318-1.234 6.494-1.841-.693-.084-2.545-.319-3.238-.403 3.254-7.321 8.586-14.106 14.139-20.879-5.674 1.42-8.503 5.343-10.54 8.852-2.44 3.98-3.104 8.256-4.687 12.342l-1.928.41c.807-8.79-1.912-17.793-8.027-25.82 2.32 8.858 4.313 17.772 2.924 26.584-1.826.385-3.644.799-5.43 1.222 1.22-7.168-2.932-14.283-9.262-20.15 3.05 7.138 7.786 14.084 7.522 21.504-2.024-.9-2.69-2.466-3.791-3.795-2.104-2.768-5.071-5.26-8.688-7.274 3.15 3.913 7.238 7.589 8.534 11.979-1.336 2.199-4.403 3.912-5.168 6.328 2.154-.872 4.201-1.852 6.298-2.793.218 1.139.508 2.285.532 3.455-2.648 1.398-5.606 2.46-8.254 3.858-2.434.26-4.917-.033-7.342-.09 2.713-2.252 5.53-5.112 3.58-8.065-3.174-4.962-10.432-8.201-17.344-10.877 2.188 2.626 5.043 5.022 6.719 7.817 2.162 3.443 2.54 7.354.648 10.859-3.868-.169-7.782-.031-11.568-.555-2.736-1.528-5.308-3.206-8.324-4.52-.071-1.39-.124-2.78-.16-4.171 1.008.585 2.042 1.204 3.078 1.818-.01.955.018 1.93.06 2.904.486-.37 1.408-1.09 1.882-1.462a207.007 207.007 0 013.029 3.388c1.104-.705 2.202-1.469 1.822-2.554-.589-3.764 2.223-7.147 3.496-10.754-3.568 1.962-4.37 5.07-5.478 7.824-.973-.544-2.127-1.17-1.6-2.09 1.893-8.073 1.273-16.668-3.312-24.527 1.02 8.133 2.218 16.167.945 24.146-1.05-.27-2.259-.578-3.309-.85 1.318-6.115-.754-12.362-4.923-17.98-3.122.729-6.34 1.541-8.547 3.217-5.194 3.476-6.35 8.45-9.19 12.68-2.266 3.45-2.41 7.241-2.199 10.892.726-.773 1.43-1.542 2.188-2.289-.076 1.195-.166 2.395-.247 3.606-2.6-.057-5.177-.12-7.746-.192 2.985-3.389 5.912-6.978 6.28-10.976.811-4.483-2.073-8.79-2.2-13.293-.596-6.62-4.575-12.828-8.382-18.998 2.714-8.325 8.525-16.091 13.556-24.069-4.77 1.501-7.915 4.428-10.183 7.444-4.412 5.952-6.626 12.446-8.33 18.837-.456 2.6-3.884 4.284-6.11 6.274-.529-13.047-5.451-26.138-13.123-38.582zm53.748 31.24c-6.594 1.493-10.51 5.598-12.953 9.584-2.929 4.92-4.537 10.109-5.344 15.276 2.577-3.432 4.13-7.152 6.508-10.678 3.061-4.998 7.507-9.542 11.79-14.182zm-30.314 1.725c1.018 3.362 2.198 6.725 2.166 10.15.535 3.347-3.785 5.766-6.131 8.45-.79-2.293-2.671-4.637-1.502-7.02 1.608-3.864 2.562-7.956 5.467-11.58zm-619.922 1.27c-9.046 3.8-13.396 12.265-15.912 20.02-3.383 11.088-3.752 22.56-2.686 33.767 2.877-12.748 5.09-25.7 10.719-37.963 2.185-5.42 5.575-10.449 7.879-15.825zm779.676 6.003c.85 3.352 2.585 6.55 3.754 9.842 2.121 5.515 3.325 11.14 4.01 16.756 2.57-4.175 1.925-8.89.525-13.256-1.733-4.679-4.343-9.283-8.29-13.342zm-308.834.692c2.51 4.48 5.424 8.838 6.605 13.515 1.732 5.575.954 11.256-.932 16.68 5.635-3.954 9.278-9.41 7.893-14.853-1.49-5.889-7.047-11.082-13.566-15.342zm142.69.162c0 1.455-.144 2.911-.395 4.37-2.055-1.386-1.857-3.132.394-4.37zm-34.534.584c7.758 9.692 10.875 20.557 11.097 31.035-2.839.019-5.68-.015-8.496-.072-1.21-2.76-2.556-5.519-4.433-8.14-1.7-1.917.438-3.995 1.508-5.803 1.814 2.988 2.023 6.227 3.51 9.256 3.043-7.684-1.07-15.505-6.452-22.53a56.908 56.908 0 013.266-3.746zm93.783.074c-1.889.944-3.493 2.138-4.353 3.61-2.963 4.568-4.008 9.529-4.887 14.357 2.924-5.952 5.46-12.102 9.24-17.967zm-137.39 1.234c3.803 6.731 8.835 13.05 10.882 20.006.222.445.309.96.452 1.459.215.754.558 1.477 1.685 1.885.973-3.77.25-7.547-1.64-11.147-2.353-4.48-6.504-8.67-11.38-12.203zm-15.64 1.672c-7.511 4.798-7.195 12.159-8.066 18.318 2.249-6.114 4.505-12.323 8.067-18.318zm130.294 1.063c2.904 5.298 4.61 10.96 4.644 16.513-2.522-2.34-3.49-5.25-6.474-7.416 1.088 2.246 2.532 4.411 3.355 6.703-2.363-.543-4.693-1.131-7.078-1.6 3.095 1.967 8.652 3.121 8.652 6.386.161.958.264 1.937.397 2.927-3.553-.782-6.98-1.745-10.477-2.591.867-1.363 1.756-2.723 2.545-4.094-1.547.382-3.033.829-4.517 1.283.31-.764.62-1.515.93-2.26-2.35.989-4.53 2.133-6.77 3.205 1.36-2.906 3.562-5.587 5.504-8.367 1.05-1.269.015-2.859 1.369-4.063 2.212-2.398 4.951-4.585 7.92-6.626zm-40.106 1.84c1.76.053 2.206 2.022 1.588 2.888-1.718-.069-2.647-2.067-1.588-2.889zm-35.906.558c1.477 2.579 2.973 5.163 3.709 7.865.081 1.812-1.359 3.485-2.32 5.139-3.335-1.53-2.525-4.57-3.967-6.793a99.063 99.063 0 00-.398 3.605c-1.78-.395-2.626-1.382-1.79-2.476 1.258-2.517 2.587-5.063 4.766-7.34zm197.066.537c-4.427 1.176-7.867 3.569-10 6.399-3.267 4.302-5.501 9.012-6.103 13.79 2.817-3.12 4.347-6.678 6.94-9.908 2.558-3.612 6.164-6.818 9.163-10.28zm-147.572 2.957c-.08 2.79.077 5.574-.402 8.334.034 1.074-1.5 1.646-2.586 2.29-.575-1.648-1.432-3.287-1.41-4.972.832-2.06 2.64-3.865 4.398-5.652zm-243.539.176c-2.514 1.302-4.35 3.06-5.316 5.039-2.753 5.224-2.87 10.795-2.99 16.176 1.453-4.019 2.195-8.15 3.906-12.178 1.163-3.064 3.099-5.98 4.4-9.037zm352.602.854c1.095 3.411 3.257 6.601 4.511 9.962 1.457 3.382 2.084 6.887 2.942 10.329 3.853-6.923-1.084-14.629-7.453-20.291zm-333.172.02c2.846 5.27 5.764 10.564 5.838 16.122.272 1.875-.638 3.832.273 5.658.345-.108.976-.297 1.32-.405 5.936-7.128.803-15.765-7.431-21.375zm212.605.118c1.384 1.588 2.147 3.366 1.77 5.199-1.206-1.627-1.708-3.414-1.77-5.2zm-50.422.336c4.81 1.736 4.767 5.261 3.387 8.21-1.095 1.71.544 3.258 1.37 4.844.042.084.084.168.122.252-.029.296-.078.59-.144.881-.388 1.722-1.319 3.389-1.793 5.1-1.86.044-3.698.084-5.526.13 3.267-6.207 3.527-12.829 2.584-19.417zm-138.144.205c-8.719 2.188-11.422 8.523-11.93 13.873 2.045-2.426 3.406-5.058 5.469-7.492 1.856-2.245 4.341-4.237 6.46-6.381zm97.955.355c1.627 5.605 2.608 11.228 1.4 16.813 4.266-5.228 3.43-11.75-1.4-16.813zm75.373.424c2.426 3.63 4.383 7.41 4.76 11.338-3.525-3.36-4.922-7.29-4.76-11.338zm-244.668 3.748c-.496 2.607-1.109 5.199-1.455 7.807-.284 2.137-.387 4.273-.096 6.412.218-.612.419-1.224.621-1.832.148-.444.298-.886.455-1.324 1.33 1.14 3.506 2.44 2.036 3.978-.787 1.049-.978 2.418-1.747 3.498-.46.647-1.125 1.189-2.251 1.498-.359-4.34-.739-8.718-2.104-13.027-.845-1.965.645-3.687 2.426-5.242.702-.614 1.45-1.201 2.115-1.768zm37.469.127c3.576 3.88 7.445 7.602 9.746 11.852 2.35-4.811-4.208-9.135-9.746-11.852zm178.79.535c1.191 1.346 2.298 2.739 3.225 4.176-.36.196-1.095.6-1.457.795-.825-1.025-1.622-2.052-2.52-3.031-.074 1.725 1.878 3.764-.054 5.28-.408-.382-.8-.764-1.184-1.147a92.93 92.93 0 01-1.687-1.745c.589-.695 1.17-1.392 1.755-2.088.632-.75 1.269-1.499 1.922-2.24zm39.651.49c.246 1.525-.053 3.09-1.523 4.356.163-1.495.423-3.008 1.523-4.356zm-111.021 1.338c.947.775 1.297 1.584 1.054 2.426.603.55 1.205 1.103 1.805 1.658-1.321.445-2.628.91-3.924 1.383-.168.243-.532.726-.71.969-.485-1.175-1.056-2.324-1.3-3.514.641-1.112 1.95-2.003 3.075-2.922zm121.011 1.15c-.06 1.042-.1 2.088-.154 3.147-.468 0-1.493-.016-1.96-.016.437-1.12-.667-3.252 2.114-3.13zm88.483 1.792c-.293 2.399-.825 4.794-1.45 7.162a100.76 100.76 0 01-5.183.514c-.031-1.63-.696-3.31-.064-4.899 2.007-1.138 4.38-1.948 6.697-2.777zm-176.465.016c-2.724 1.5-3.584 3.771-3.316 5.957 1.666-1.838 2.666-3.883 3.316-5.957zm-13.506.016a65.426 65.426 0 012.006 3.637c-2.781 1.646-2.538 4.688-5.867 5.853.776-3.21 1.493-6.532 3.861-9.49zm-491.182.627c1.811 4.422 3.74 8.82 4.965 13.383-1.208-.777-2.361-1.554-3.53-2.32 4.035 6.872 7.646 14.032 8.532 21.698.155 2.626 1.616 5.612-.523 7.952-.09-1.756-.045-3.524-.102-5.258a26.4 26.4 0 00-3.31 3.355c-.836-2.33-2.21-4.5-3.022-6.832-.222-3 .707-5.982.637-8.984-1.391 1.554-2.428 3.294-3.348 5.055-1.086-3.478-3.51-6.786-2.992-10.51.567-5.858 1.073-11.76 2.693-17.54zm266.715.34c5.026 5.141 10.098 10.363 12.645 16.232-3.096.15-4.688-1.675-6.684-2.877-3.192-2.076-6.96-3.786-11.072-4.947 3.83 2.7 8.268 4.949 11.389 8.054-8.002.637-16.031.978-23.975 1.764 4.377-6.602 9.886-13.081 17.697-18.227zm-207.552.189c1.919 3.943 3.562 7.97 5.093 12.01-1.685 2.486-3.467 4.924-5.302 7.346-1.3-1.882-3.703-3.695-3.045-6.018.935-4.458 1.614-8.975 3.254-13.338zm140.32.016c5.49 4.553 10.309 9.594 13.537 15.05-3.316-1.676-6.727-3.604-10.043-5.28a98.05 98.05 0 01.799-2.932c-1.303.604-2.572 1.223-3.848 1.844-1.103-.482-2.21-.957-3.318-1.426.524-2.49 1.397-4.945 2.873-7.256zm372.014.033c1.91 2.627 3.208 5.483 2.685 8.39-1.653-.045-3.306-.08-4.96-.101.865-2.74 1.71-5.497 2.275-8.289zm72.873.674c-3.204 1.4-4.44 3.966-4.336 6.35 2.531-1.733 3.586-4.071 4.336-6.35zm-341.825.25c1.737 2.806 2.406 5.83 3.07 8.79a695.997 695.997 0 00-6.009 4.15c-.355-1.901-1.104-3.785-1.043-5.7.713-2.532 2.232-4.94 3.982-7.24zm17.338.619c.913 2.677 1.271 5.411 1.555 8.127-.877.601-1.731 1.202-2.57 1.816-.781-3.285-2.557-7.024 1.015-9.943zm379.518.142c-5.896 1.237-8.297 5.539-8.654 9.215 3.722-2.661 6.512-5.862 8.654-9.215zm-152.795.506c.273 1.95.081 3.915-.1 5.87-.574 0-1.95-.025-2.524-.025.027-2.065.435-4.195 2.624-5.844zm3.06.037c.382 1.872.345 3.916-1.988 5.313.18-1.825.446-3.708 1.988-5.313zm32.711 0c-.302 2.053-.563 4.109-1.252 6.12-.568.046-1.678.142-2.257.195.91-2.156 2.036-4.276 3.51-6.315zm-77.275.391c-1.252.322-2.055 1.483-1.25 2.236 1.595.316 3.126-2.073 1.25-2.236zm-318.853.133c.404 3.303 3.105 6.89.084 9.926-.991-1.143-2.332-2.192-2.74-3.512.337-2.226 1.475-4.345 2.656-6.414zm430.458.224c.766.02.904.393.42 1.12-1.58.265-2.049-.074-1.396-1.022a4.99 4.99 0 01.976-.098zm-442.017.73c3.23 2.953 4.89 6.522 4.894 10.241-1.655-1.45-3.533-2.779-5.08-4.28-.637-1.943.103-3.993.186-5.96zm445.23.093c3.584 1.396 9.09 2.451 8.575 5.765-5-.048-9.999-.19-14.97-.412 1.995-1.843 4.186-3.6 6.395-5.353zm-19.798.182c-.377 1.598-.919 3.184-1.516 4.761a307.95 307.95 0 00-4.016.06c1.762-1.635 3.531-3.286 5.532-4.821zm-13.24.652c-.53 1.169-1.016 2.355-1.557 3.533-.931.085-2.337.208-3.268.293 1.55-1.31 3.218-2.545 4.824-3.826zm-560.659.148a176.06 176.06 0 013.572 6.18c-1.812 1.667-3.595 3.354-5.476 4.967-2.71-3.464.867-7.57 1.904-11.147zm584.154.155c.444 1.403.928 2.814 1.428 4.228l-3.498-.139a110.37 110.37 0 012.07-4.09zm-496.011.6c.86 2.812 1.616 5.65 2.068 8.525-1.607-.63-3.21-1.245-4.79-1.872.584-2.286 1.45-4.53 2.722-6.654zm-32.512.378c4.744 4.467 8.152 9.635 11.096 14.867 1.689-3.659-.71-7.283-2.21-10.705 3.736 1.798 7.644 3.805 9.956 6.705a36.266 36.266 0 011.379 11.809c-1.385-.426-2.737-.857-4.098-1.28 1.803 1.466 3.576 3.015 4.328 4.987-2.057.327-4.155.639-6.22.236-.352-5.026-3.13-9.9-7.864-13.496-2.72-2.193-6.086-3.785-9.236-5.56.675-2.573 1.507-5.138 2.869-7.563zm210.492.193c2.527 2.704 4.33 5.655 5.774 8.657-6.436-.115-4.91-5.732-5.774-8.656zm18.645.133c2.305 2.237 3.6 4.818 4.99 7.325-1.497.077-2.979.175-4.45.28-.156-2.532-.497-5.07-.54-7.605zm279.26.797c1.499.134 1.733.603.718 1.405-1.55-.156-1.787-.623-.719-1.405zm-396.409.713c2.411.086-1.76 2.245-.574.012.223-.015.414-.017.574-.012zm122.477.19c1.06 1.564 2.046 3.22 1.762 4.976-1.65-1.35-3.513-3.296-1.762-4.977zm13.37.066c1.517 1.421 2.678 2.984 3.661 4.593a515.93 515.93 0 00-5.195.319c.36-1.66.815-3.314 1.535-4.912zm-318.907.318c2.267 1.008 4.264 2.377 6.015 3.922 4.71 3.2 1.402 8.68 2.993 12.894 1.072-2.629 1.586-5.365 2.209-8.062.419.465.853.948 1.289 1.435-1.638 4.955-3.308 10.154-1.948 15.24.758 2.967.78 6.02 1.346 9.018a175.56 175.56 0 00-3.77.842c-.36-3.608-.528-7.25-1.634-10.773-1.353-4.306-1.226-8.812-2.453-13.141-.908-3.9-2.903-7.532-4.047-11.375zm-37.733.08c2.372 4.012 4.164 8.254 5.883 12.502a282.583 282.583 0 00-4.557-.738c2.058 1.443 4.503 2.587 6.075 4.468 1.706 3.151 2.406 6.61 3.931 9.842.499-2.676-.08-5.35-.627-7.96 2.776 2.521 5.753 4.961 7.627 8.054-1.139-.04-2.266-.072-3.38-.098 2.277 1.332 3.82 3.183 4.12 5.525l-1.849.516c1.36 2.145 2.309 4.45 2.654 6.88-1.649.237-3.294.482-4.926.743-2.78-9.783-8.102-19.271-16.269-26.744-2.068-1.683-2.023-4.262-2.467-6.496.74-2.344 2.287-4.44 3.785-6.494zm656.768.06c.158-.01.301-.01.428 0 .76.054.952.439.584 1.16-1.573.215-2.077-.15-1.534-1.102.19-.028.364-.047.522-.057zm-433.197.507c.762-.036 1.062.353.898 1.166-1.46.403-2.06.078-1.814-.988.357-.107.661-.166.916-.178zm475.017.978c1.304.514 1.199.984-.287 1.393-1.351-.55-1.262-1.013.287-1.393zm-476.91 1.368c1.637-.07 3.087 1.339 2.285 2.43-1.404.96-3.084 1.688-4.687 2.466.401-1.616.83-3.243 1.695-4.771.229-.073.467-.115.707-.125zm110.47.341c1.929.086 1.473 3.001-.65 2.502-1.067-.693-.522-2.032.65-2.502zm-131.759.405c3.09 1.964 4.439 4.832 6.441 7.324a162.159 162.159 0 00-7.18-4.797 50.27 50.27 0 01.739-2.527zm10.115.086c1.314 3.615 2.21 7.299 3.283 10.935-.685.135-1.966.405-2.638.547-.449-3.614-3.617-7.21-1.801-10.853.297-.157.87-.474 1.156-.63zm-74.385.646c1.746 1.055 3.579 2.034 5.38 3.06a90.634 90.634 0 00-2.524 5.133c-1.442-.307-3.231-.338-4.086-1.378-.92-1.425-.733-3.045-.832-4.563.812 1.027 1.523 2.077 2.297 3.152.728-1.796.31-3.64-.235-5.404zm-57.544 1.123c3.547 4.374 7.767 9.203 5.78 14.643-1.792-1.23-3.669-2.412-5.07-3.92-.625-3.536-.486-7.148-.71-10.723zm81.097.3c.911 1.736 2.905 3.639 1.676 5.565-1.452 2.39-2.376 4.923-2.322 7.551 1.307-.949 2.568-1.928 3.884-2.865a85.905 85.905 0 01-.488 4.185c-2.563.384-5.15.315-7.32-.814l-.166.516c-.13.402-.262.817-.352 1.101-1.535-1.355-2.918-2.785-4.263-4.217 1.008-1.314 1.848-2.696 2.664-4.064.359 1.989.688 3.984 1.42 5.95.066-.128.13-.255.193-.384 2.005-4.099 2.236-8.6 5.074-12.523zm67.838.147c.818.51 1.643 1.026 2.486 1.555-.58 1.982-1.06 3.968-1.384 5.977-1.005-.229-2.01-.45-3.018-.666-.087-2.36.64-4.684 1.916-6.866zm578.953.053c.032.613.074 1.706.092 2.317.96-.432 1.94-.849 2.926-1.25-.192.474-.588 1.427-.781 1.9-1.377-.13-2.746-.245-4.098-.328.61-.887 1.23-1.766 1.861-2.639zm-714.11 1.315c1.272 3.337 2.487 6.72 2.954 10.18-1.127 2.891-2.498 5.741-2.984 8.757-1.573-1.295-2.632-2.85-2.385-4.664-.94-4.834.554-9.65 2.416-14.273zm130.981.58c.225 1.549.436 3.105.643 4.666-1-.767-1.968-1.546-2.9-2.315a83.259 83.259 0 012.257-2.351zm-36.855 1.555c.402 1.96 2.979 4.503-.01 5.95-1.11-.963-2.195-1.925-3.276-2.88a79.057 79.057 0 013.286-3.07zm46.566.847c.133-.01.274-.01.424 0 .829.804 1.532 1.677 2.29 2.543-.981.088-4.952.455-5.933.543 1.056-.965 1.223-2.965 3.22-3.088zm-30.508 1.01c.86 1.436 1.672 2.9 2.438 4.387-2.36.252-4.71.482-7.065.693 1.209-1.837 2.769-3.538 4.627-5.08zm-58.789.176c1.996-.068 1.703 3.124-.359 2.64-1.156-.63-.895-2.187.36-2.64zm-147.613.873c3.314 3.545 6.282 7.39 8.356 11.572-7.42 2.39-11.917 8.256-14.194 14.342 1.112-8.736 3.139-17.393 5.838-25.914zm56.748.773c.638.646 1.28 1.306 1.938 1.989-1.212 1.437-2.398 2.882-3.715 4.265.304-2.135 1.013-4.205 1.777-6.254zm168.94.07c.994.11-.604 2.304-1.147.334.55-.274.917-.359 1.147-.334zm-84.141.698c1.76 2.49 1.266 5.499 2.697 8.115.908-2.057.66-4.545 2.932-6.143-.027 2.143-.75 4.224-1.24 6.326-1.977.356-.522.093-2.498.45-.548-2.926-1.416-5.82-1.891-8.748zm43.838.806c.668 1.039 1.351 2.11 2.031 3.174-1.837.183-3.654.364-5.46.531.885-1.344 1.947-2.643 3.429-3.705zm10.525.873c.648.043.882.48.71 1.305-1.69.553-2.389.206-2.067-1.047a4.61 4.61 0 011.055-.252c.109-.01.21-.012.302-.01zm-58.543.557c.124.749.249 1.498.375 2.246-.915.702-1.813 1.418-2.71 2.137a15.443 15.443 0 012.335-4.383zm34.66 1.287c1.382-.114 2.05 1.665.43 2.072-1.945.839-2.763-1.37-1.062-1.898.222-.103.435-.158.632-.174zm-147.125.615c2.598 2.73 6.22 5.78 4.69 9.567-3.538-2.369-4.819-5.918-4.69-9.567zm36.092.217c1.452 2.27 2.964 4.557 3.87 7.031-1.263 2.678-3.168 5.188-3.84 8.047-.785.16-1.984.42-2.768.58.796-2.723 1.804-5.407 2.709-8.11-1.087.41-2.16.825-3.219 1.257.887-2.968 1.434-6.067 3.248-8.805zm78.223 1.59c.066.188.13.376.197.564.303.86.662 1.858.965 2.717-.027 0-.348.035-.375.035-1.126.108-2.806.27-3.758.37.796-1.312 1.797-2.542 2.97-3.686zm-29.668.351c-.398 2.226-.824 4.455-.994 6.71-1.383.21-2.763.428-4.131.654-.609-3.153 1.947-5.637 5.125-7.364zm41.867.133c1.47.353 1.556.87.264 1.545-1.493-.356-1.582-.875-.264-1.545zm-68.982.168c4.359 1.522 6.289 5.381 7.61 8.703-2.866-.05-6.919 2.31-8.685-.341-.634-2.756.72-5.6 1.075-8.362zm65.888.17c1.458.346 1.544.864.256 1.557-1.48-.35-1.56-.879-.256-1.557zm-55.81 1.41c2.355.053-1.616 2.427-.559.022.217-.019.402-.025.559-.022zm-102.307 2.912a46.276 46.276 0 001.09 16.248c-1.491.948-2.98 1.89-4.477 2.846.38-4.155.754-8.303.356-12.453-.513-2.547 1.55-4.613 3.031-6.64zm79.985 1.194c2.999 1.27 6.884 2.16 8.261 4.861-2.228.224-4.723.95-6.662-.28-.928-1.438-1.165-3.055-1.6-4.581zm-60.143.138c2.215 4.356 4.323 8.763 5.674 13.366-.45-.198-1.937-.845-2.387-1.043-.162-.814-.31-1.63-.447-2.448-3.812 1.396-5.879 4.617-9.479 6.233 1.929-5.436 4.31-10.776 6.639-16.108zm23.475 2.493c1.285 2.253 3.156 4.606 2.166 7.207-3.157-1.603-3.378-4.625-2.166-7.207zm-77.67.77c1.1 1.831 2.186 3.691 3.246 5.57a95.65 95.65 0 01-5.332-3.354 70.465 70.465 0 012.086-2.217zm69.6 2.364c3.233.483 3.154 4.194 4.347 6.237-2.264-1.66-4.302-3.628-4.348-6.237zm15.683 2.153c1.442.024 1.256 2.112-.08 2.342-1.82.262-1.692-2.061-.23-2.319.11-.018.214-.025.31-.023zm-89.01.324c5.175 3.85 10.185 8.42 12.447 14.146-.766.104-2.298.31-3.064.415-1.542-5.257-6.257-8.89-10.73-12.319.333-.556 1.013-1.678 1.347-2.242zm60.684 5.164c.96.092-.471 2.645-1.086.42.515-.33.864-.441 1.086-.42zm-87.051.143c2.773.823 3.498 3.182 3.787 5.533a55.146 55.146 0 011.523-1.608c.409.71.831 1.422 1.268 2.155a90.155 90.155 0 00-1.652 2.312c-3.492-1.59-3.68-5.489-4.926-8.392zm73.719 1.043c1.025.043 1.229.562.615 1.566-1.467.078-1.839-.438-1.106-1.557a4.63 4.63 0 01.49-.01zm-8.407 1.707c1.414.34 1.512.909.319 1.724-1.436-.344-1.547-.913-.319-1.724zm-37.271 1.437a236.557 236.557 0 013.129 3.34 212.819 212.819 0 00-3.606 3.146c-.697-.475-1.39-.952-2.086-1.43.692-1.754 1.527-3.448 2.563-5.056zm26.209.38c1.442.346 1.57.915.389 1.728-1.449-.37-1.578-.94-.39-1.727zm-46.791 2.706c1.315.09 1.693 2.207.248 2.51-1.595.187-2.088-2.184-.524-2.5.096-.013.188-.016.276-.01zm11.617 1.379c1.454.706 2.921 1.471 3.676 2.863l-4.385.846c.217-1.258.455-2.492.71-3.71z" fill="#659028" stroke="#659028"/><path d="M441.694 417.547c-.662 9.031-1.938 18.18-6.304 26.07-7.022 13.986-20.834 24.354-36.328 27.086.538 16.436.476 32.879.9 49.346 16.386-2.685 31.6-13.484 38.783-28.664 3.337-6.127 4.346-13.09 6.281-19.713 2.688 6.481 4.356 13.322 8.026 19.4 4.052 8.198 10.589 14.799 17.537 20.684l.016.8c5.071 3.035 9.967 6.422 15.468 8.739 6.04 2.686 12.583 4.1 19.096 5.387 2.985.116 5.982.22 8.982.318 5.23.173 12.1.372 17.329.545 6.874-.746 13.804-1.798 20.203-4.276 14.89-5.518 26.633-16.904 31.843-30.205 2.556-5.907 2.653-12.328 3.739-18.515 2.13 15.006 11.322 29.397 24.873 39.478 12.167 9.328 28.23 14.613 44.556 15.239 11.938.365 24.162 1.55 35.84-1.16a71.5 71.5 0 009.313-2.567c7.275-2.546 13.882-6.195 19.388-10.627 5.037-4.05 9.16-8.762 12.045-13.91 3.318-5.303 4.268-11.222 5.686-16.95 1.005 4.172 1.8 8.41 3.55 12.5 4.399 10.33 12.631 19.873 23.755 26.973 13.105 8.449 30.084 13.446 47.324 13.66 7.363.122 14.771.63 22.174.448 11.63-.504 23.09-3.024 32.902-7.377 14.594-6.576 25.37-17.095 29.367-28.832 1.209-3.861 1.496-7.829 2.555-11.68 1.439 13.498 11.218 26.784 26.363 35.893 4.536 2.725 9.55 5.077 14.965 6.953l.01.681c6.109 1.399 12.17 2.917 18.318 4.274 9.442 1.26 19.065 1.24 28.647 1.379 19.69.872 39.81-3.507 54.267-12.444 13.337-8.018 21.447-19.302 23.846-30.927 1.624 4.965 2.585 10.093 5.606 14.845 4.502 7.488 11.69 14.333 21.01 19.637 10.769 6.308 24.453 10.297 38.704 11.572 3.795.339 7.627.484 11.452.43 3.065-.054 6.149-.047 9.234-.049 8.967-.004 17.951-.073 26.58-1.879 13.458-2.459 25.735-7.57 35.15-14.437 11.989-8.545 18.556-19.879 20.463-31.19 1.93 5.413 3.438 10.998 7.295 16.012 8.974 12.621 26.534 22.535 47.004 25.61 12.49 2.203 25.47 1.053 38.17.832 3.575-.09 7.079-.471 10.533-1.036 6.698-1.094 13.19-2.873 19.633-4.537l.012-.666c14.612-4.9 25.375-14.053 33.123-23.879.051-.19.124-.468.195-.744 3.844-5.45 6.391-12.43 7.266-18.262 1.31 6.263 2.15 12.72 5.885 18.538 6.786 12.233 21.245 21.77 38.156 26.545v.002c10.455 2.326 21.425 3.221 32.356 2.304 9.262-.106 18.687-.329 27.562-2.687 18.557-4.336 34.232-14.837 43.477-28.106 3.089-4.441 5.45-9.182 6.937-14.074.84-3.037 1.114-6.142 2.586-9.078.655 3.553.785 7.193 1.986 10.668 2.755 7.935 8.105 15.144 14.883 21.281-.033.025-.065.054-.098.078.635.635 1.367 1.35 2.383 2.049 5.517 3.24 11.06 6.63 17.406 8.803.267.091.534.18.803.267 8.573 2.808 17.923 4.13 27.215 3.764 10.47-.495 21.26.131 31.262-3.072.358-.096 4.112-1.166 5.097-1.44l.043.03c.933-.289 1.877-.578 2.828-.893 23.795-8.498 40.677-29.45 43.434-51.648 0 8.246 1.006 16.582 4.703 24.101 6.211 13.299 18.85 24.719 34.586 28.533l.322.09c8.212 1.811 18.141 2.804 25.637 2.14 8.06-.051 16.252-.052 24.035-2.37 8.924-2.244 16.464-6.707 24.037-11.79.18-.133.37-.29.549-.423 7.116-4.592 12.2-11.585 16.672-18.65 3.832-6.091 5.653-13.066 8.72-19.545 1.597 8.045 3.032 16.264 7.122 23.431 6.486 13.147 19.192 22.565 33.107 26.293.377-16.068.44-32.112.926-48.148-13.87-2.294-26.488-10.642-34.041-22.387-4.868-7.626-8.032-16.49-8.43-25.783-.149-3.049-.43-6.058-.603-9.082-.99 16.842-10.223 33.197-22.907 44.844-13.178 12.1-31.022 18.347-48.722 18.1-8.5.531-17.137 1.1-25.385-.97-14.327-2.89-27.148-11.06-34.592-22.265a81.953 81.953 0 010 0c-6.658-9.253-9.108-20.402-8.582-31.549-1.15 11.816-6.399 23.474-14.558 33.316-9.56 10.74-22.669 19.18-37.645 22.912-9.244 2.536-18.996 2.65-28.55 3.122-8.164.489-16.38-.034-24.167-1.846a63.927 63.927 0 01-2.892-.717c-11.264-3.074-21.068-9.06-28.28-16.46-4.983-5.978-9.19-12.533-10.69-19.722a75.443 75.443 0 01-1.509-10.546c-.067 7.39-2.005 14.938-5.77 21.962a53.216 53.216 0 01-6.431 9.38c-9.909 12.146-25.745 21.223-43.56 24.972-6.82 1.603-13.936 1.858-20.96 2.156-10.822.704-21.836 1.023-32.296-1.191-17.227-3.513-32.035-12.353-39.918-23.738-4.577-5.95-6.306-12.744-7.49-19.436-1.162 3.993-3.367 9.268-5.024 13.352-6.757 10.858-17.734 20.629-32.377 26.886-6.112 2.512-12.689 4.465-19.502 5.772a106.328 106.328 0 01-15.039 1.785c-7.893.294-15.783.666-23.695.553-20.85-.39-40.79-7.384-53.205-18.346-7.566-6.57-11.54-14.468-14.422-22.361-2.148 7.816-5.5 15.71-12.307 22.539-10.036 10.434-26.041 18.388-44.232 21.51-7.243 1.415-14.7 1.674-22.186 1.708-5.013.024-10.037-.052-15.02.053-1.89.004-3.774-.046-5.65-.144-22.712-1.201-43.951-9.76-56.142-22.245-6.774-6.71-10.086-14.46-12.309-22.158-2.956 7.88-6.975 15.82-14.746 22.4-9.947 8.554-24.394 15.017-40.568 17.432-7.138 1.145-14.523 1.48-21.877 1.301-8.861-.224-17.805-.126-26.55-1.3-6.12-.944-12.16-2.194-17.915-3.907-5.333-1.826-10.408-4.012-15.084-6.535-5.51-2.977-10.458-6.42-14.606-10.285-7.74-7.06-11.965-15.386-14.994-23.672-2.035 7.744-5.018 15.55-11.527 22.152-12.062 12.925-34.094 21.124-56.715 20.807-7.055-.18-14.097-.572-21.096-.836-24.008-1.049-46.694-11.492-59.554-26.693-6.62-7.5-10.053-16.08-12.319-24.604-2.456 8.34-6.054 16.634-12.867 23.518a52.086 52.086 0 01-1.973 1.86c-5.385 4.83-12.06 8.84-19.515 11.698a72.596 72.596 0 01-15.72 4.07c-10.399 1.707-21.086.635-31.597.08-8.813-.47-17.559-2.208-25.703-5.181-12.098-4.37-22.328-11.833-30.367-20.574-7.173-8.31-11.397-18.002-14.3-27.74-.806 9.338-3.757 18.433-9.407 26.31-9.629 12.972-26.5 21.724-44.467 22.549-5.536.218-11.057-.1-16.576-.455-3.009-.194-6.02-.4-9.01-.531-12.412-1.36-24.377-6.01-34.513-13.204-15.994-11.97-27.1-30.6-28.707-49.894zm948.895 44.83c.06 1.073.104 2.157.14 3.246-.043-1.083-.079-2.166-.14-3.246zm186.656 46.19a45.15 45.15 0 01-2.818 2.827c.959-.93 1.9-1.87 2.818-2.828z" fill="#4d4d4d" stroke="#4d4d4d" stroke-opacity=".392" fill-opacity=".392"/><path d="M1699.796 245.713a50.78 50.78 0 00.223-3.22 63.768 63.768 0 00-.223 3.22z" fill="#3d688e" stroke="#3d688e"/></g></svg>