<svg id="e2rrw1yd3bir1" xmlns="http://www.w3.org/2000/svg" xmlns:xlink="http://www.w3.org/1999/xlink" viewBox="198.952000 -3.969000 1884.386000 1161.289000" shape-rendering="geometricPrecision" text-rendering="geometricPrecision"><style><![CDATA[#e2rrw1yd3bir2_ts {animation: e2rrw1yd3bir2_ts__ts 1000ms linear 1 normal forwards}@keyframes e2rrw1yd3bir2_ts__ts { 0% {transform: translate(1141.879120px,576.675500px) scale(0.485129,0.485129)} 20% {transform: translate(1141.879120px,576.675500px) scale(0.485129,0.485129);animation-timing-function: cubic-bezier(0.250000,1,0.250000,1)} 60% {transform: translate(1141.879120px,576.675500px) scale(1.108532,0.856731);animation-timing-function: cubic-bezier(0.420000,0,0.580000,1)} 80% {transform: translate(1141.879120px,576.675500px) scale(0.776841,0.755854);animation-timing-function: cubic-bezier(0.420000,0,1,1)} 90% {transform: translate(1141.879120px,576.675500px) scale(0.742978,0.722906);animation-timing-function: cubic-bezier(0.420000,0,0.580000,1)} 100% {transform: translate(1141.879120px,576.675500px) scale(0.871356,0.847816)} }]]></style><g id="e2rrw1yd3bir2_ts" transform="translate(1141.879120,576.675500) scale(0.485129,0.485129)"><g id="e2rrw1yd3bir2" transform="translate(-1141.879120,-576.675500)"><path id="e2rrw1yd3bir3" d="M1047.945000,395.826000C959.337000,396.032000,870.718000,396.450000,782.138000,398.872000C724.692000,400.436000,667.267000,402.907000,609.926000,406.736000C561.126000,409.971000,512.390000,414.194000,463.771000,419.498000C457.726000,420.143000,451.683000,420.804000,445.639000,421.457000C443.914000,436.626000,436.976000,451.317000,425.718000,461.717000C419.358000,467.444000,411.684000,471.676000,403.457000,474.039000C404.413000,533.763000,405.124000,593.503000,404.165000,653.232000C403.346000,727.270000,402.049000,801.436000,407.500000,875.344000C410.719000,917.528000,415.720000,959.748000,426.300000,1000.783000C429.161000,1011.766000,432.116000,1022.783000,436.476000,1033.288000C437.437057,1035.634536,438.817599,1037.786339,440.550000,1039.638000C446.445000,1046.251000,455.370000,1049.948000,464.204000,1049.732000C473.411000,1049.675000,482.234000,1046.767000,491.138000,1044.769000C596.007000,1019.538000,701.904000,998.463000,808.604000,982.629000C892.426000,970.239000,976.800000,961.222000,1061.466000,957.399000C1107.523000,955.357000,1153.664000,955.161000,1199.733000,956.937000C1259.057000,959.119000,1318.282000,963.771000,1377.259000,970.507000C1448.789000,978.677000,1519.942000,989.910000,1590.688000,1003.212000C1657.041000,1015.663000,1723.040000,1029.932000,1788.836000,1045.037000C1798.811000,1047.277000,1808.763000,1049.627000,1818.777000,1051.682000C1823.986000,1052.692000,1829.419000,1052.672000,1834.606000,1051.565000C1840.413000,1050.374000,1846.083000,1047.888000,1850.418000,1043.764000C1853.845000,1040.357000,1855.835000,1035.791000,1856.841000,1031.124000C1864.254000,1004.115000,1869.182000,976.474000,1872.431000,948.668000C1877.715000,904.407000,1879.526000,859.812000,1880.137000,815.266000C1881.199000,729.628000,1877.121000,644.029000,1877.656000,558.393000C1877.776000,531.676000,1878.256000,504.963000,1878.699000,478.250000C1863.206000,474.482000,1849.435000,463.677000,1842.573000,449.220000C1838.505000,440.560000,1836.590000,431.035000,1835.953000,421.530000C1727.893000,412.897000,1619.779000,404.334000,1511.423000,400.450000C1400.869000,396.384000,1290.225000,395.960000,1179.610000,395.820000C1142.332000,395.772000,1105.053000,395.761000,1067.775000,395.790000L1047.945000,395.826000Z" fill="rgb(255,255,255)" stroke="none" stroke-width="1"/><path id="e2rrw1yd3bir4" d="M1768.600000,417.393000C1768.600000,417.393000,1652.346000,430.667000,1601.925000,433.219000C1551.504000,435.770000,1441.975000,437.517000,1441.975000,437.517000C1442.957000,486.857000,1442.482000,536.219000,1442.469000,585.568000C1442.409000,679.225000,1444.559000,813.405000,1431.055000,898.896000C1483.635000,903.348000,1530.355000,908.014000,1578.445000,913.799000C1641.975000,920.796000,1701.795000,931.499000,1756.995000,939.127000C1773.893000,841.815000,1767.649000,683.109000,1767.741000,582.287000C1767.286000,528.231000,1768.759000,469.880000,1768.601000,417.393000ZM504.993000,431.021000C505.637000,541.193000,504.619000,666.936000,506.266000,764.633000C650.850000,753.490000,795.451000,748.258000,928.845000,746.043000C1087.074000,743.890000,1243.767000,743.373000,1390.458000,746.295000C1391.738000,645.790000,1389.368000,545.445000,1390.196000,454.250000C1253.091000,458.045000,1108.482000,463.781000,963.802000,459.765000C803.442000,453.461000,641.170000,442.439000,504.993000,431.021000ZM1742.977000,453.801000C1740.404000,560.691000,1742.987000,671.995000,1742.280000,767.861000C1647.734000,760.902000,1563.866000,756.351000,1474.100000,753.269000C1474.829000,671.690000,1475.068000,552.323000,1474.827000,469.601000C1518.160000,468.396000,1593.212000,466.236000,1617.395000,465.027000C1641.845000,463.805000,1707.022000,457.419000,1742.973000,453.801000ZM530.530000,455.240000C654.860000,465.267000,815.205000,476.819000,941.919000,481.010000C941.741000,547.960000,942.166000,669.790000,943.276000,729.418000C803.302000,730.821000,661.912000,736.150000,532.499000,743.788000C532.401000,638.708000,530.530000,550.795000,530.530000,455.240000ZM1358.640000,478.302000C1356.196000,565.119000,1358.286000,655.070000,1357.442000,729.144000C1223.128000,726.719000,1086.310000,729.212000,961.675000,729.199000C959.983000,648.709000,960.090000,561.894000,960.393000,481.519000C1091.547000,483.316000,1226.088000,480.785000,1358.639000,478.302000Z" fill="rgb(88,149,203)" stroke="none" stroke-width="1"/><path id="e2rrw1yd3bir5" d="M1500.790000,658.683000C1513.984000,657.133000,1529.775000,666.379000,1524.927000,679.382000C1517.933000,692.249000,1499.657000,693.106000,1489.957000,685.116000C1478.295000,672.822000,1488.237000,660.847000,1500.791000,658.683000Z" fill="rgb(88,149,203)" stroke="rgb(88,149,203)" stroke-width="0.300000"/><path id="e2rrw1yd3bir6" d="M1689.052000,554.038000C1691.328000,553.436000,1694.777000,554.068000,1694.789000,556.638000C1697.364000,573.838000,1699.287000,586.995000,1701.810000,603.244000C1702.403000,605.309000,1701.631000,608.374000,1698.759000,608.429000C1637.793000,616.113000,1586.207000,622.433000,1534.240000,628.595000C1531.784000,629.127000,1528.121000,628.470000,1528.100000,626.046000C1526.377000,607.866000,1520.352000,592.804000,1519.283000,575.846000C1576.610000,569.399000,1637.120000,561.444000,1689.052000,554.038000ZM1522.931000,579.119000C1525.519000,595.014000,1528.869000,612.181000,1531.350000,626.109000C1587.350000,620.255000,1649.639000,612.025000,1698.843000,605.717000C1696.981000,589.330000,1693.993000,572.063000,1691.781000,556.599000C1663.616000,560.819000,1536.501000,577.043000,1522.931000,579.119000Z" fill="rgb(255,255,255)" stroke="none" stroke-width="1"/><path id="e2rrw1yd3bir7" d="M1590.194000,495.227000C1566.395000,518.901000,1543.961000,544.130000,1520.345000,566.523000C1518.715911,568.084502,1517.348762,569.898026,1516.296000,571.894000C1520.788000,571.612000,1522.842000,568.010000,1525.616000,565.697000C1550.316000,542.533000,1571.935000,516.122000,1592.691000,496.402000C1627.162000,512.314000,1659.391000,526.094000,1690.341000,543.400000C1692.471000,544.423000,1694.727000,545.228000,1697.021000,545.990000C1696.751000,544.770000,1696.492000,543.547000,1696.245000,542.322000C1661.983000,526.224000,1629.975000,510.280000,1597.433000,495.228000C1594.747000,494.005000,1592.422000,493.435000,1590.194000,495.227000Z" fill="rgb(195,195,195)" stroke="none" stroke-width="1"/><path id="e2rrw1yd3bir8" d="M1700.440000,542.590000C1704.153000,567.932000,1707.930000,591.924000,1711.459000,615.523000C1649.648000,622.846000,1566.862000,631.914000,1523.225000,636.113000C1519.053000,611.497000,1515.087000,590.131000,1511.325000,567.771000C1576.091000,559.552000,1633.001000,551.198000,1700.440000,542.590000Z" fill="rgb(211,41,67)" stroke="none" stroke-width="1"/><path id="e2rrw1yd3bir9" d="M441.694000,417.547000C440.044000,443.995000,423.092000,466,399.062000,470.703000C399.909000,508.688000,400.340000,547.553000,400.472000,582.476000C400.928000,710.679000,387.994000,910.418000,431.648000,1033.795000C440.318000,1052.758000,460.403000,1057.126000,477.944000,1052.338000C693.196000,999.326000,934.776000,960.359000,1132.222000,959.848000C1366.288000,960.201000,1595.596000,1003.744000,1815.894000,1055.763000C1833.487000,1059.439000,1855.284000,1053.277000,1859.886000,1036.021000C1896.742000,912.671000,1881.670000,709.171000,1881.743000,582.582000C1881.948000,545.027000,1882.045000,509.692000,1883.067000,474.804000C1869.197000,472.511000,1856.580000,464.163000,1849.027000,452.418000C1841.746000,439.837000,1840.739000,430.244000,1839.993000,417.553000C1839.004000,434.395000,1829.771000,450.750000,1817.087000,462.396000C1816.602000,501.710000,1816.099000,546.190000,1816.055000,582.322000C1815.956000,682.556000,1822.973000,847.298000,1807.651000,944.855000C1805.273000,965.176000,1791.577000,978.476000,1772.411000,978.072000C1704.156000,966.829000,1631.002000,953.834000,1571.508000,945.508000C1422.362000,925.104000,1275.030000,914.423000,1133.215000,914.181000C924.577000,913.697000,726.541000,934.975000,528.225000,973.361000C510.232000,977.270000,490.275000,966.251000,487.311000,949.857000C466.131000,849.093000,471.437000,687.525000,471.059000,582.355000C471.355000,541.155000,469.919000,506.457000,470.401000,467.442000C454.407000,455.470000,443.301000,436.840000,441.694000,417.547000Z" fill="rgb(47,47,47)" stroke="none" stroke-width="1"/><path id="e2rrw1yd3bir10" d="M485.884000,766.324000C496.624000,765.355000,504.840000,764.744000,515.313000,763.926000C653.031000,753.105000,794.468000,748.274000,928.844000,746.043000C1091.178000,745.190000,1254.843000,741.274000,1413.441000,746.841000C1413.348000,757.098000,1413.111000,767.354000,1412.731000,777.605000C1249.813000,772.835000,1089.361000,772.696000,929.825000,776.211000C781.763000,779.114000,630.436000,787.598000,486.748000,801.759000C486.274000,789.995000,486.010000,778.152000,485.884000,766.324000Z" fill="rgb(51,85,116)" stroke="none" stroke-width="1"/><path id="e2rrw1yd3bir11" d="M1183.247000,792.746000C1187.366000,802.993000,1195.212000,848.672000,1183.207000,840.774000C1182.638000,826.492000,1159.837000,794.839000,1173.092000,825.932000C1184.200000,856.835000,1155.825000,812.761000,1160.078000,834.195000C1153.371000,826.247000,1158.812000,857.806000,1145.560000,840.391000C1133.416000,814.201000,1152.631000,882.582000,1129.600000,858.149000C1125.182000,841.501000,1103.003000,854.173000,1123.372000,852.784000C1142.512000,867.318000,1096.879000,872.670000,1104.428000,851.794000C1109.259000,853.664000,1088.515000,874.479000,1096.988000,853.111000C1104.512000,822.488000,1065.660000,849.515000,1077.262000,847.507000C1098.830000,818.997000,1095.132000,889.279000,1088.602000,850.667000C1081.316000,834.902000,1096.447000,868.171000,1083.393000,853.347000C1058.397000,866.794000,1106.834000,858.634000,1078.633000,866.987000C1053.083000,875.210000,1058.004000,842.134000,1045.677000,843.576000C1068.867000,859.846000,1022.325000,841.877000,1048.132000,854.410000C1034.956000,860.770000,1068.043000,859.912000,1050.580000,864.693000C1042.441000,873.536000,1027.290000,834.237000,1037.116000,861.773000C1030.748000,876.635000,1013.460000,846.444000,1031.370000,865.343000C1028.747000,841.323000,1001.963000,863.353000,1027.051000,866.603000C1012.574000,866.823000,1013.055000,855.880000,1010.121000,867.368000C1007.513000,859.230000,993.077000,875.339000,1003.267000,861.489000C992.752000,881.430000,968.717000,846.070000,977.776000,864.136000C983.786000,857.341000,983.660000,877.412000,972.208000,864.062000C958.388000,875.441000,956.796000,860.562000,948.073000,845.192000C962.454000,861.224000,946.401000,880.959000,939.334000,856.540000C943.754000,849.743000,951.233000,877.540000,943.744000,852.335000C945.448000,845.275000,922.731000,846.355000,928.098000,858.711000C919.262000,842.575000,932.648000,877.869000,918.528000,857.337000C922.829000,830.345000,905.129000,878.143000,897.591000,853.662000C884.494000,836.638000,902.801000,872.974000,895.983000,867.442000C905.097000,878.669000,870.253000,857.357000,886.079000,851.693000C871.280000,855.949000,838.677000,884.853000,861.186000,852.713000C882.316000,821.707000,839.762000,872.039000,845.777000,864.283000C843.981000,853.700000,816.072000,831.975000,833.067000,855.068000C831.552000,854.228000,841.977000,895.682000,827.511000,868.348000C821.571000,858.684000,807.905000,853.228000,813.868000,847.526000C805.290000,856.237000,804.979000,870.290000,797.295000,850.740000C790.475000,840.192000,812.551000,819.547000,794.448000,837.010000C782.318000,849.744000,804.172000,868.398000,785.449000,852.610000C777.606000,838.360000,766.071000,818.598000,777.762000,848.095000C784.908000,861.941000,776.402000,896.435000,772.832000,864.591000C783.857000,852.677000,739.445000,827.414000,767.262000,854.194000C773.568000,866.537000,754.279000,851.806000,760.948000,871.774000C764.853000,869.876000,775.454000,869,762.478000,880.482000C753.149000,882.185000,733.118000,855.890000,750.068000,846.195000C730.965000,850.835000,738.585000,877.090000,739.754000,873.956000C728.524000,873.901000,731.973000,836.629000,720.996000,851.965000C733.787000,879.918000,702.341000,844.938000,704.304000,849.705000C713.828000,865.996000,716.309000,882.153000,697.808000,861.478000C686.630000,848.686000,688.998000,874.948000,686.056000,870.486000C688.446000,893.100000,690.155000,862.192000,700.812000,880.466000C705.228000,900.252000,691.678000,879.329000,683.334000,879.972000C673.211000,867.035000,672.844000,838.985000,678.584000,833.182000C664.578000,839.734000,668.793000,888.502000,657.171000,852.106000C650.861000,838.151000,637.028000,822.953000,648.891000,846.963000C666.158000,864.365000,653.055000,912.028000,643.268000,872.807000C650.824000,900.004000,646.455000,835.580000,637.048000,851.999000C621.325000,839.019000,643.826000,875.858000,624.623000,865.849000C616.339000,848.086000,605.093000,839.184000,607.679000,865.829000C605.343000,888.040000,584.465000,818.890000,595.214000,857.908000C588.998000,860.914000,612.257000,895.270000,591.314000,874.491000C591.098000,860.049000,584.698000,848.292000,578.645000,867.252000C575.152000,884.762000,564.037000,892.174000,561.372000,869.929000C562.066000,860.611000,540.577000,820.019000,541.377000,833.087000C548.887000,846.042000,545.999000,863.875000,547.949000,863.763000C557.542000,875.604000,562.696000,927.307000,548.859000,891.096000C546.519000,881.829000,521.479000,838.619000,525.202000,854.988000C532.696000,864.135000,548.680000,894.636000,526.512000,873.484000C553.438000,898.708000,497.834000,857.091000,525.295000,880.236000C537.291000,887.726000,535.733000,902.967000,521.313000,892.082000C539.528000,899.238000,522.228000,903.485000,532.007000,911.322000C520.764000,908.050000,513.246000,889.012000,520.084000,909.948000C524.632000,934.932000,508.078000,885.446000,504.629000,910.388000C491.323000,903.714000,522.037000,925.896000,500.419000,914.356000C507.397000,947.167000,546.503000,952.183000,573.988000,941.170000C835.991000,893.996000,1104.041000,882.305000,1369.374000,902.620000C1397.046000,902.780000,1405.009000,876.966000,1402.295000,859.998000C1413.165000,840.485000,1381.088000,884.830000,1398.995000,854.111000C1379.810000,857.221000,1422.061000,811.779000,1393.298000,841.101000C1390.696000,857.418000,1382.106000,886.540000,1386.910000,854.229000C1388.648000,839.326000,1377.400000,812.856000,1382.579000,843.036000C1379.069000,860.650000,1379.717000,889.372000,1368.594000,855.351000C1350.124000,826.314000,1387.144000,882.026000,1353.129000,873.018000C1334.749000,875.780000,1355.817000,851.079000,1340.790000,870.644000C1335.884000,862.226000,1332.340000,821.012000,1334.671000,855.111000C1337.203000,877.876000,1319.141000,865.026000,1316.884000,858.079000C1338.230000,878.508000,1279.594000,876.337000,1305.308000,856.217000C1311.934000,852.587000,1276.506000,880.372000,1295.658000,860.359000C1304.315000,850.879000,1323.317000,816.166000,1304.013000,842.602000C1296.903000,871.838000,1292.692000,807.650000,1292.403000,838.615000C1296.653000,862.397000,1286.875000,848.815000,1280.818000,837.447000C1285.908000,850.026000,1288.073000,861.844000,1274.718000,845.611000C1289.712000,861.377000,1273.730000,879.396000,1266.288000,853.837000C1243.445000,835.529000,1277.232000,872.712000,1249.128000,866.939000C1231.298000,852.317000,1253.658000,872.133000,1253.608000,854.454000C1245.740000,870.170000,1247.425000,818.162000,1245.598000,846.331000C1247.445000,869.531000,1232.377000,815.239000,1222.866000,848.921000C1214.938000,872.077000,1217.235000,862.151000,1216.171000,844.330000C1206.547000,830.763000,1211.940000,801.265000,1217.780000,800.453000C1206.779000,808.353000,1194.909000,845.925000,1192.487000,811.813000C1190.151000,805.128000,1186.956000,798.768000,1183.247000,792.746000ZM643.727000,847.553000L644.235000,846.654000ZM732.085000,849.695000C740.316000,845.741000,730.432000,845.978000,732.085000,849.695000ZM760.503000,857.373000C751.956000,849.065000,745.246000,851.397000,760.503000,857.373000ZM972.208000,864.063000C972.623000,863.145000,968.466000,862.858000,972.208000,864.063000ZM1139.388000,832.047000L1136.761000,826.633000ZM1236.995000,823.987000C1221.415000,823.512000,1214.603000,862.345000,1227.737000,834.496000L1232.245000,829.134000ZM586.759000,826.980000C563.361000,829.880000,565.315000,901.696000,573.799000,856.890000C577.027055,846.481554,581.372368,836.453135,586.759000,826.980000ZM1366.434000,832.984000C1368.821000,844.105000,1379.323000,868.188000,1373.253000,842.838000L1370.248000,837.630000ZM1057.600000,833.675000C1062.679000,848.131000,1070.580000,874.410000,1069.027000,844.252000C1066.192000,839.797000,1061.895000,836.592000,1057.600000,833.676000ZM1259.540000,834.495000C1247.709000,846.621000,1251.740000,855.736000,1258.783000,835.777000ZM1122.150000,835.730000C1128.302000,854.112000,1142.951000,862.001000,1127.134000,839.830000ZM1106.510000,837.402000C1095.357000,849.954000,1099.915000,858.672000,1105.810000,838.700000ZM1357.858000,841.400000C1340.221000,848.418000,1342.142000,867.817000,1354.364000,845.141000L1357.858000,841.401000ZM966.747000,844.533000C954.718000,855.882000,957.385000,876.757000,966.747000,844.533000ZM1319.349000,845.387000C1322.782000,862.857000,1334.063000,865.382000,1321.200000,847.319000L1319.929000,845.992000ZM986.177000,845.407000C991.400000,877.179000,1005.900000,861.869000,986.177000,845.407000ZM1010.216000,846.066000C1001.672000,847.351000,993.445000,865.026000,1005.806000,851.926000ZM1108.171000,846.421000C1108.508000,865.781000,1116.949000,865.407000,1108.171000,846.421000ZM976.345000,850.720000C983.757000,864.363000,995.419000,862.561000,976.345000,850.720000ZM1116.794000,856.040000C1110.617000,857.397000,1115.114000,871.390000,1116.794000,856.040000ZM1256.475000,857.935000C1247.235000,863.884000,1254.625000,867.334000,1256.475000,857.935000ZM1311.507000,858.947000C1299.883000,861.807000,1303.960000,874.685000,1311.507000,858.947000ZM1117.207000,859.880000C1111.877000,861.720000,1120.380000,862.544000,1117.207000,859.880000ZM785.127000,875.353000L782.136000,877.453000ZM509.987000,914.878000C520.527000,922.978000,503.187000,921.844000,509.987000,914.878000Z" fill="rgb(101,144,40)" stroke="none" stroke-width="1"/><path id="e2rrw1yd3bir12" d="M1876.485000,96.200000C1831.565000,107.815000,1785.385000,119.818000,1744.945000,130.191000C1798.966000,195.019000,1817.039000,270.366000,1845.555000,336.151000C1844.289000,363.619000,1842.267000,393.458000,1839.993000,417.552000C1839.847000,460.993000,1869.597000,480.882000,1909.513000,474.804000C1952.997000,468.092000,1971.562000,438.298000,1974.870000,403.095000C1977.660000,373.775000,1981.208000,344.039000,1983.175000,318.627000C1982.891000,318.650000,1982.629000,318.673000,1982.347000,318.697000C1956.603000,236.703000,1921.522000,155.609000,1876.485000,96.201000ZM413.612000,98.560000C363.368000,166.181000,323.249000,246.136000,300.483000,318.322000C301.556000,346.290000,304.993000,376.787000,307.533000,401.814000C313.748000,438.164000,338.871000,469.684000,374.542000,471.109000C413.329000,477.917000,439.010000,452.764000,441.694000,417.547000C440.306000,390.824000,437.772000,363.140000,437.671000,336.605000C462.575000,264.153000,500.041000,186.855000,543.541000,136.801000C497.021000,126.366000,452.678000,108.083000,413.612000,98.561000ZM1613.807000,162.900000C1567.890000,173.822000,1524.939000,183.666000,1481.122000,192.804000C1516.157000,247.714000,1538.309000,308.597000,1552.800000,367.576000C1552.897000,389.902000,1552.336000,412.926000,1551.505000,435.769000C1552.582000,470.309000,1585.606000,486.388000,1619.042000,486.150000C1647.207000,485.950000,1697.702000,472.114000,1700.018000,422.492000C1700.818000,398.785000,1701.628000,372.130000,1701.938000,351.631000C1701.939000,351.631000,1701.938000,351.631000,1701.938000,351.631000C1679.266000,272.913000,1657.874000,216.851000,1613.805000,162.901000ZM674.237000,172.900000C629.024000,226.935000,602.933000,288.795000,582.067000,354.558000L582.065000,354.558000L582.065000,354.560000C581.989000,380.193000,582.994000,406.623000,584.374000,432.770000C592.278000,465.150000,621.434000,484.300000,654.744000,486.267000C687.476000,490.849000,724.784000,483.781000,736.417000,445.041000C735.729000,414.559000,734.982000,395.063000,734.858000,371.625000C746.696000,331.685000,778.882000,243.053000,806.848000,203.655000C760.943000,193.997000,714.198000,183.219000,674.238000,172.900000ZM1347.317000,216.912000C1302.284000,223.549000,1253.027000,229.027000,1212.108000,231.937000C1222.748000,283.940000,1227.444000,339.116000,1230.758000,390.283000C1232.087000,413.016000,1231.508000,436.377000,1231.811000,457.517000C1243.578000,493.684000,1286.494000,501.360000,1323.136000,497.672000C1354.694000,495.888000,1390.206000,483.922000,1395.073000,449.877000C1396.171000,425.773000,1395.791000,406.601000,1395.005000,381.117000C1387.052000,325.537000,1373.733000,265.740000,1347.318000,216.912000ZM940.522000,225.265000C918.772000,282.552000,907.135000,331.431000,897.252000,385.250000C896.364000,410.312000,897.418000,431.851000,897.628000,454.217000C908.453000,489.457000,951.832000,502.637000,986.774000,499.914000C1019.127000,500.104000,1052.039000,490.109000,1063.968000,458.781000C1063.319000,435.721000,1065.479000,413.204000,1064.122000,391.873000C1066.884000,338.020000,1072.210000,287.268000,1076.262000,235.109000C1027.810000,233.154000,982.417000,230.255000,940.522000,225.265000Z" fill="rgb(211,41,67)" stroke="none" stroke-width="1"/><path id="e2rrw1yd3bir13" d="M1744.944000,130.191000C1701.956000,141.204000,1656.941000,152.459000,1613.807000,162.901000C1658.266000,224.043000,1681.877000,285.361000,1701.940000,351.631000C1701.386000,377.621000,1700.609000,401.511000,1700.018000,422.491000C1697.564000,464.086000,1733.228000,482.685000,1768.360000,480.496000C1803.988000,478.262000,1837.346000,451.854000,1839.993000,417.552000C1842.372000,390.828000,1843.968000,368.115000,1845.556000,336.150000C1818.780000,261.931000,1786.069000,182.955000,1744.944000,130.191000ZM543.542000,136.801000C489.938000,201.016000,462.723000,266.856000,437.671000,336.605000C437.771000,363.140000,440.306000,390.825000,441.694000,417.547000C448.026000,452.220000,472.649000,476.784000,504.914000,480.644000C540.715000,484.861000,580.696000,471.422000,584.374000,432.771000C582.994000,406.624000,581.991000,380.193000,582.067000,354.561000C582.064251,354.560235,582.061574,354.559231,582.059000,354.558000L582.067000,354.558000C602.932000,288.794000,629.023000,226.935000,674.237000,172.900000C625.921000,160.248000,587.407000,149.405000,543.542000,136.800000ZM1481.122000,192.804000C1436.679000,201.929000,1392.192000,210.182000,1347.317000,216.910000C1373.760000,272.592000,1383.839000,325.956000,1395.005000,381.117000C1395.249000,404.343000,1396.727000,428.607000,1395.077000,449.877000C1403.364000,488.449000,1442.123000,496.313000,1474.784000,494.242000C1509.495000,493.038000,1550.798000,473.547000,1551.504000,435.772000C1552.184000,412.109000,1552.866000,388.009000,1552.799000,367.576000C1537.921000,305.986000,1509.859000,239.777000,1481.122000,192.804000ZM806.848000,203.654000C771.188000,256.619000,749.776000,314.390000,734.858000,371.624000C734.694000,394.797000,736.152000,421.147000,736.417000,445.041000C748.407000,487.241000,793.634000,496.223000,829.386000,497.174000C860.556000,495.004000,889.676000,483.901000,897.628000,454.217000C896.921000,431.162000,896.713000,405.912000,897.253000,385.250000C907.537000,331.098000,921.590000,271.713000,940.523000,225.265000C893.741000,219.037000,846.425000,211.527000,806.848000,203.654000ZM1212.108000,231.937000C1165.738000,235.139000,1120.900000,236.142000,1076.263000,235.109000C1072.205000,272.746000,1065.752000,361.022000,1064.122000,391.873000C1064.198000,414.651000,1064.480000,437.813000,1063.968000,458.779000C1076.814000,497.450000,1118.951000,503.415000,1153.088000,503.275000C1186.152000,502.791000,1222.428000,490.945000,1231.813000,457.517000C1231.969000,433.894000,1231.669000,410.840000,1230.759000,390.285000L1230.759000,390.283000C1228.679000,334.509000,1219.429000,278.476000,1212.109000,231.937000Z" fill="rgb(255,255,255)" stroke="none" stroke-width="1"/><path id="e2rrw1yd3bir14" d="M441.694000,417.547000C440.044000,443.995000,423.092000,466,399.062000,470.703000C399.600000,487.139000,399.538000,503.582000,399.962000,520.049000C428.135000,512.723000,438.292000,495.141000,445.026000,471.672000C458.479000,506.200000,476.053000,525.752000,514.151000,527C552.336000,531.128000,581.184000,510.338000,587.265000,474.549000C595.785000,509.187000,624.789000,527.695000,656.694000,529.266000C695.189000,530.493000,728.566000,526.535000,738.966000,484.052000C747.026000,519.739000,781.276000,536.444000,813.595000,537.185000C851.103000,540.352000,891.715000,519.994000,900.593000,489.744000C911.807000,532.217000,952.737000,538.416000,988.896000,538.924000C1020.127000,538.636000,1059.730000,527.849000,1067.009000,495.553000C1079.375000,535.665000,1117.041000,542.008000,1153.015000,541.988000C1185.914000,542.231000,1228.585000,530.393000,1235.208000,494.482000C1249.134000,534.868000,1292.836000,537.624000,1327.677000,536.936000C1356.836000,535.900000,1393.394000,519.388000,1398.439000,487.812000C1406.506000,525.676000,1440.880000,537.836000,1474.836000,535.201000C1520.787000,529.318000,1540.521000,511.897000,1555.398000,481.256000C1560.255000,513.611000,1589.480000,529.156000,1619.976000,528.166000C1656.806000,528.486000,1696.610000,511.753000,1702.640000,471.143000C1703.324000,507.748000,1734.010000,528.696000,1767.888000,526.007000C1811.528000,524.887000,1825.040000,509.456000,1841.901000,473.229000C1846.005000,497.385000,1859.632000,516.554000,1882.130000,522.953000C1882.507000,506.885000,1882.570000,490.841000,1883.056000,474.805000C1853.223000,461.968000,1841.488000,443.306000,1839.982000,417.553000C1834.148000,455.593000,1803.380000,480.497000,1768.353000,480.497000C1731.549000,482.999000,1698.363000,464.553000,1699.794000,425.713000C1693.467000,468.014000,1655.156000,483.318000,1619.041000,485.063000C1582.181000,479.195000,1553.927000,468.395000,1551.503000,435.772000C1548.846000,475.949000,1508.915000,492.794000,1474.782000,494.242000C1440.597000,496.402000,1401.706000,486.615000,1395.078000,449.877000C1385.966000,480.410000,1346.850000,496.201000,1323.136000,497.672000C1286.462000,499.312000,1245.668000,494.872000,1231.814000,457.518000C1220.804000,492.302000,1184.597000,503.091000,1153.089000,503.275000C1117.960000,504.559000,1074.582000,494.817000,1063.968000,458.781000C1050.743000,490.919000,1017.638000,500.581000,986.777000,499.914000C950.769000,500.150000,911.378000,491.234000,897.628000,454.215000C885.647000,496.735000,841.284000,497.603000,808.290000,496.338000C774.317000,491.896000,745.899000,479.826000,736.417000,445.041000C722.014000,484.550000,688.004000,490.454000,654.745000,486.267000C619.982000,483.484000,594.242000,465.271000,584.375000,432.772000C580.304000,469.770000,544.579000,483.136000,513.925000,481.176000C476.341000,480.083000,445.238000,452.297000,441.695000,417.547000Z" fill="rgb(77,77,77)" fill-opacity="0.392" stroke="none" stroke-width="1"/></g></g></svg>