<svg xmlns="http://www.w3.org/2000/svg" viewBox="198.952 -3.969 2375.517 766.563" width="2375.517" height="766.563"><g aria-label="StretchShop" style="line-height:1.25;-inkscape-font-specification:'Lao MN'" font-weight="400" font-size="391.061" font-family="Kozuka Gothic Pr6N" letter-spacing="0" word-spacing="0" stroke-width="9.777"><path d="M471.02 119.104c-14.079-7.04-35.978-13.687-64.526-13.687-64.916 0-103.631 37.933-103.631 87.206 0 39.106 28.156 67.263 73.52 86.816 33.24 14.47 47.709 27.374 47.709 48.883 0 22.29-16.816 37.541-48.883 37.541-24.246 0-49.274-7.43-64.916-16.815l-11.34 48.491c14.077 8.604 44.19 16.816 73.91 16.816 70 0 109.497-38.324 109.497-90.726 0-39.497-21.508-67.263-69.609-88.771-36.76-16.816-51.62-26.592-51.62-48.1 0-16.816 13.687-33.24 44.19-33.24 24.637 0 43.017 7.43 53.575 12.904zM533.13 192.623h-28.547v42.626h28.548v100.503c0 24.246 1.173 78.603 63.743 78.603 16.815 0 30.894-1.955 38.715-5.084l-.782-44.19c-5.866 1.174-10.559 1.956-18.771 1.956-17.598 0-25.81-10.95-25.81-37.151v-94.637h48.1v-42.626h-48.1V135.92l-57.095 16.816zM793.095 189.104c-3.91-.782-7.43-1.173-12.905-1.173-20.335 0-43.799 14.469-53.967 42.625h-1.564l-2.346-37.933h-49.665c.782 19.553 1.564 41.062 1.564 68.045v149.776h57.877V297.82c0-37.151 19.944-54.749 46.146-54.749 5.865 0 10.558.391 14.86 1.173zM981.476 361.953c-14.86 5.084-31.676 8.994-53.184 8.994-31.285 0-57.877-14.86-59.441-52.01h130.223c1.173-6.258 1.564-14.47 1.564-23.073 0-70.392-34.413-107.933-87.206-107.933-63.743 0-99.72 53.966-99.72 116.536 0 67.653 38.323 109.888 105.586 109.888 26.983 0 52.402-4.693 70.39-12.514zm-112.625-83.296c1.564-21.509 13.296-50.447 41.061-50.447 28.548 0 37.542 27.765 37.151 50.447zM1050.218 192.623h-28.548v42.626h28.548v100.503c0 24.246 1.173 78.603 63.743 78.603 16.815 0 30.893-1.955 38.715-5.084l-.782-44.19c-5.866 1.174-10.559 1.956-18.771 1.956-17.598 0-25.81-10.95-25.81-37.151v-94.637h48.1v-42.626h-48.1V135.92l-57.095 16.816zM1331.3 361.562c-9.386 4.301-20.727 7.039-35.196 7.039-33.24 0-57.878-24.637-57.878-67.263 0-38.324 21.118-67.653 57.486-67.653 16.034 0 26.593 3.52 34.023 7.039l9.385-44.19c-9.385-3.91-26.592-8.212-45.363-8.212-71.955 0-114.19 50.056-114.19 115.363 0 69.218 41.453 110.67 105.196 110.67 23.072 0 43.017-4.693 52.793-9.385zM1560.754 280.221c0-64.134-30.502-92.29-69.218-92.29-18.77 0-42.625 8.212-58.268 30.893h-.782V96.031h-57.877v314.413h57.877V278.266c0-32.458 22.29-42.626 36.76-42.626 25.028 0 33.631 21.508 33.631 49.274v125.53h57.877z" style="-inkscape-font-specification:'Kozuka Gothic Pr6N Bold'" font-weight="700"/><path d="M1757.232 122.623c-10.168-6.648-31.285-13.687-58.66-13.687-51.228 0-87.206 31.676-87.206 75.475 0 41.061 29.72 66.48 75.475 82.905 41.061 16.425 57.486 35.978 57.486 68.436 0 34.804-25.419 58.659-68.045 58.659-24.245 0-47.318-7.821-63.743-19.162l-8.212 20.335c14.86 10.95 44.19 19.162 70 19.162 61.788 0 94.637-36.369 94.637-81.34 0-43.8-25.419-67.263-73.52-87.207-41.061-17.207-59.832-33.24-59.832-65.307 0-23.073 16.034-51.62 61.397-51.62 25.028 0 43.799 8.212 52.01 14.078zM1989.73 281.785c0-76.257-50.447-87.988-72.346-87.988-29.72 0-57.486 17.988-69.218 40.67h-.782V97.987h-24.246v312.457h24.246V280.221c0-8.212.39-13.687 2.737-19.944 8.213-25.028 32.458-45.754 60.615-45.754 41.061 0 54.748 33.24 54.748 70v125.921h24.246zM2138.608 193.797c-52.402 0-98.938 39.888-98.938 112.625 0 67.263 41.844 108.715 96.201 108.715 46.536 0 99.33-33.631 99.33-112.625 0-64.134-38.324-108.715-96.593-108.715zm71.956 109.888c0 52.01-31.676 91.9-73.91 91.9-41.453 0-72.347-39.89-72.347-90.336 0-44.19 22.29-91.9 73.52-91.9 52.01 0 72.737 51.62 72.737 90.336zM2309.441 237.204l-1.955-38.324h-22.29c.782 19.553 1.564 40.28 1.564 67.263V497.65h24.245V377.986h.783c13.687 23.464 39.497 37.151 68.826 37.151 48.1 0 93.855-36.368 93.855-113.799 0-63.352-36.369-107.541-88.77-107.541-35.196 0-60.615 16.033-75.476 43.407zm1.564 48.492c0-29.72 24.246-71.955 68.827-71.955 45.363 0 70.391 41.843 70.391 88.77 0 54.358-26.2 92.682-72.346 92.682-39.497 0-66.872-31.676-66.872-68.045z" style="-inkscape-font-specification:'Kozuka Gothic Pr6N Light'" font-weight="300"/></g><g aria-label="Fast &amp; Scalable e-business" style="line-height:1.25;-inkscape-font-specification:'Lao MN';text-align:center" font-weight="300" font-size="164.609" font-family="Kozuka Gothic Pr6N" letter-spacing="0" word-spacing="0" text-anchor="middle" stroke-width="10.058"><path d="M463.054 660.618V601.03h47.243v-8.56h-47.243v-48.23h51.358v-8.56h-61.564v124.938zM593.041 604.651c0-16.79-5.596-35.226-30.782-35.226-8.724 0-18.436 2.469-26.173 7.572l2.963 7.243c6.256-4.445 14.321-6.585 21.893-6.585 21.893 0 21.893 18.93 21.893 27.655-34.897-.33-53.168 11.687-53.168 32.592 0 12.181 8.56 24.692 26.008 24.692 13.498 0 23.21-7.243 27.49-14.321h.494l1.152 12.345h9.383c-.988-6.584-1.153-14.156-1.153-21.234zm-10.04 27.16c0 6.585-6.585 22.552-25.68 22.552-8.889 0-16.955-5.596-16.955-17.942 0-20.74 24.033-23.045 42.634-23.045zM664.286 575.022c-4.773-3.128-11.687-5.597-19.917-5.597-17.284 0-27.82 11.358-27.82 24.527 0 10.7 8.066 18.765 22.552 24.526 12.51 5.103 17.942 10.206 17.942 19.424 0 9.054-6.42 16.297-19.753 16.297-7.9 0-15.144-3.292-19.753-6.09l-3.457 8.23c5.926 3.621 13.992 6.09 22.717 6.09 17.777 0 30.288-9.547 30.288-25.844 0-13.333-8.56-20.576-22.881-26.337-11.852-5.103-17.613-8.889-17.613-17.778 0-7.901 5.761-14.815 16.625-14.815 8.395 0 14.157 3.293 17.284 5.432zM693.088 571.565h-14.486v8.066h14.486v54.815c0 13.498 2.634 27.983 21.07 27.983 5.432 0 9.547-.823 12.345-1.975l-.987-7.901c-2.305.823-5.268 1.481-9.712 1.481-9.218 0-12.675-6.913-12.675-18.272v-56.131h24.362v-8.066H703.13v-19.918l-10.041 3.621zM862.625 594.28c-2.634 17.285-6.42 30.124-12.51 39.507-9.383-10.864-22.88-26.502-34.733-40.494v-.658c20.576-10.37 28.313-20.576 28.313-33.91 0-15.473-10.7-25.02-24.198-25.02-18.436 0-28.477 14.65-28.477 29.465 0 9.053 3.95 18.271 10.7 27.325l-.165.494c-13.992 8.395-24.198 19.917-24.198 36.872 0 19.095 14.157 34.733 35.556 34.733 13.004 0 24.856-4.115 36.873-15.638 5.76 5.926 9.218 9.712 13.168 13.662h12.51c-7.571-8.23-13.662-14.485-19.752-20.905 8.56-10.535 13.168-25.844 16.46-45.432zm-47.901 60.248c-15.803 0-27.325-12.017-27.325-27.984 0-15.638 11.358-24.691 18.93-29.3 15.144 17.613 30.288 34.732 37.86 43.621-4.28 4.939-13.663 13.663-29.465 13.663zm3.457-112.922c11.522 0 16.131 9.383 16.131 17.942 0 12.181-9.547 19.753-23.868 27.49-5.103-6.914-9.877-14.486-9.877-24.691 0-10.37 5.597-20.741 17.614-20.741zM987.407 539.466c-4.28-2.798-13.169-5.761-24.692-5.761-21.563 0-36.708 13.333-36.708 31.77 0 17.283 12.51 27.983 31.77 34.896 17.284 6.914 24.198 15.145 24.198 28.807 0 14.65-10.7 24.691-28.642 24.691-10.206 0-19.918-3.292-26.832-8.065l-3.456 8.56c6.255 4.608 18.6 8.065 29.465 8.065 26.008 0 39.835-15.308 39.835-34.239 0-18.436-10.7-28.312-30.947-36.707-17.283-7.243-25.185-13.992-25.185-27.49 0-9.712 6.75-21.729 25.844-21.729 10.535 0 18.436 3.457 21.893 5.926zM1073.42 648.931c-4.773 2.14-11.193 5.103-21.234 5.103-19.589 0-33.58-14.815-33.58-37.695 0-20.577 11.687-38.52 34.403-38.52 9.383 0 15.967 2.8 20.082 5.104l3.128-8.23c-3.292-2.14-11.688-5.268-22.387-5.268-26.831 0-45.597 19.588-45.597 47.572 0 26.996 16.955 45.432 42.305 45.432 12.18 0 21.234-3.621 25.185-5.597zM1151.813 604.651c0-16.79-5.597-35.226-30.782-35.226-8.724 0-18.436 2.469-26.173 7.572l2.963 7.243c6.255-4.445 14.321-6.585 21.893-6.585 21.893 0 21.893 18.93 21.893 27.655-34.897-.33-53.169 11.687-53.169 32.592 0 12.181 8.56 24.692 26.009 24.692 13.498 0 23.21-7.243 27.49-14.321h.493l1.153 12.345h9.382c-.987-6.584-1.152-14.156-1.152-21.234zm-10.041 27.16c0 6.585-6.585 22.552-25.68 22.552-8.888 0-16.954-5.596-16.954-17.942 0-20.74 24.033-23.045 42.634-23.045zM1189.642 529.096h-10.206v131.522h10.206zM1274.305 604.651c0-16.79-5.596-35.226-30.782-35.226-8.724 0-18.436 2.469-26.172 7.572l2.963 7.243c6.255-4.445 14.32-6.585 21.893-6.585 21.893 0 21.893 18.93 21.893 27.655-34.897-.33-53.17 11.687-53.17 32.592 0 12.181 8.56 24.692 26.01 24.692 13.497 0 23.21-7.243 27.489-14.321h.494l1.152 12.345h9.383c-.988-6.584-1.153-14.156-1.153-21.234zm-10.04 27.16c0 6.585-6.585 22.552-25.68 22.552-8.889 0-16.955-5.596-16.955-17.942 0-20.74 24.033-23.045 42.634-23.045zM1312.135 587.367v-58.271h-10.206v110.452c0 6.75-.33 14.98-.658 21.07h8.889l.822-15.473h.494c6.75 11.852 16.626 17.449 30.453 17.449 18.93 0 39.012-14.98 39.012-47.572 0-27.16-15.308-45.597-37.201-45.597-14.815 0-25.515 6.749-31.276 17.942zm0 20.906c0-14.815 12.016-30.453 28.971-30.453 19.095 0 29.465 17.613 29.465 37.53 0 22.552-10.864 38.849-30.123 38.849-18.437 0-28.313-15.474-28.313-27.984zM1412.765 529.096h-10.206v131.522h10.206zM1501.05 649.26c-5.103 2.47-11.687 4.939-23.869 4.939-17.448 0-32.592-10.7-32.592-38.354h63.539c.165-1.976.33-3.457.33-5.926-.165-13.827-6.091-40.494-34.404-40.494-23.045 0-39.506 19.095-39.506 48.23 0 26.173 15.637 44.774 41.317 44.774 14.65 0 23.703-3.457 27.654-5.597zm-55.967-41.317c1.481-13.333 9.547-30.288 27.983-30.288 19.918 0 25.185 17.614 25.02 30.288zM1629.008 649.26c-5.103 2.47-11.687 4.939-23.868 4.939-17.45 0-32.593-10.7-32.593-38.354h63.54c.164-1.976.328-3.457.328-5.926-.164-13.827-6.09-40.494-34.403-40.494-23.045 0-39.506 19.095-39.506 48.23 0 26.173 15.638 44.774 41.317 44.774 14.65 0 23.703-3.457 27.654-5.597zm-55.967-41.317c1.481-13.333 9.547-30.288 27.983-30.288 19.918 0 25.186 17.614 25.02 30.288zM1649.108 614.363h44.28v-8.56h-44.28zM1723.658 587.367v-58.271h-10.205v110.452c0 6.75-.33 14.98-.659 21.07h8.889l.823-15.473h.494c6.749 11.852 16.625 17.449 30.453 17.449 18.93 0 39.012-14.98 39.012-47.572 0-27.16-15.309-45.597-37.202-45.597-14.815 0-25.514 6.749-31.275 17.942zm0 20.906c0-14.815 12.017-30.453 28.972-30.453 19.094 0 29.465 17.613 29.465 37.53 0 22.552-10.865 38.849-30.124 38.849-18.436 0-28.313-15.474-28.313-27.984zM1882.231 571.4h-10.206v55.638c0 17.284-14.485 26.831-26.173 26.831-16.625 0-22.222-13.333-22.222-32.098v-50.206h-10.206v52.346c0 32.428 17.614 38.683 29.63 38.683 15.638 0 25.185-9.383 29.465-17.12h.494l.658 15.144h9.383a301.138 301.138 0 01-.823-22.386zM1954.798 575.022c-4.774-3.128-11.687-5.597-19.918-5.597-17.284 0-27.819 11.358-27.819 24.527 0 10.7 8.066 18.765 22.552 24.526 12.51 5.103 17.942 10.206 17.942 19.424 0 9.054-6.42 16.297-19.753 16.297-7.901 0-15.144-3.292-19.753-6.09l-3.457 8.23c5.926 3.621 13.992 6.09 22.716 6.09 17.778 0 30.289-9.547 30.289-25.844 0-13.333-8.56-20.576-22.881-26.337-11.852-5.103-17.613-8.889-17.613-17.778 0-7.901 5.76-14.815 16.625-14.815 8.395 0 14.157 3.293 17.284 5.432zM1992.818 546.215c0-4.444-2.963-8.066-7.572-8.066-4.445 0-7.737 3.786-7.737 8.066 0 4.444 3.128 8.23 7.572 8.23s7.737-3.292 7.737-8.23zm-2.634 25.35h-10.206v89.053h10.206zM2089.004 606.627c0-32.1-21.4-37.202-30.618-37.202-14.32 0-25.02 8.066-29.794 17.613h-.33l-.822-15.473h-9.219c.33 6.913.659 13.169.659 21.728v67.325h10.206v-55.144c0-14.156 11.358-27.49 26.337-27.49 17.614 0 23.375 14.157 23.375 29.96v52.674h10.206zM2176.527 649.26c-5.103 2.47-11.687 4.939-23.868 4.939-17.449 0-32.593-10.7-32.593-38.354h63.54c.164-1.976.328-3.457.328-5.926-.164-13.827-6.09-40.494-34.403-40.494-23.045 0-39.506 19.095-39.506 48.23 0 26.173 15.638 44.774 41.317 44.774 14.65 0 23.703-3.457 27.654-5.597zm-55.967-41.317c1.481-13.333 9.547-30.288 27.983-30.288 19.918 0 25.186 17.614 25.021 30.288zM2248.973 575.022c-4.774-3.128-11.687-5.597-19.918-5.597-17.284 0-27.819 11.358-27.819 24.527 0 10.7 8.066 18.765 22.552 24.526 12.51 5.103 17.942 10.206 17.942 19.424 0 9.054-6.42 16.297-19.753 16.297-7.901 0-15.144-3.292-19.753-6.09l-3.457 8.23c5.926 3.621 13.992 6.09 22.716 6.09 17.778 0 30.288-9.547 30.288-25.844 0-13.333-8.56-20.576-22.88-26.337-11.852-5.103-17.613-8.889-17.613-17.778 0-7.901 5.76-14.815 16.625-14.815 8.395 0 14.156 3.293 17.284 5.432zM2317.775 575.022c-4.774-3.128-11.688-5.597-19.918-5.597-17.284 0-27.82 11.358-27.82 24.527 0 10.7 8.067 18.765 22.552 24.526 12.51 5.103 17.943 10.206 17.943 19.424 0 9.054-6.42 16.297-19.753 16.297-7.902 0-15.144-3.292-19.753-6.09l-3.457 8.23c5.926 3.621 13.992 6.09 22.716 6.09 17.778 0 30.288-9.547 30.288-25.844 0-13.333-8.56-20.576-22.88-26.337-11.853-5.103-17.614-8.889-17.614-17.778 0-7.901 5.761-14.815 16.626-14.815 8.395 0 14.156 3.293 17.284 5.432z" style="-inkscape-font-specification:'Kozuka Gothic Pr6N Light';text-align:center"/></g></svg>