<?xml version="1.0" standalone="no"?>
<!DOCTYPE svg PUBLIC "-//W3C//DTD SVG 20010904//EN"
 "http://www.w3.org/TR/2001/REC-SVG-20010904/DTD/svg10.dtd">
<svg version="1.0" xmlns="http://www.w3.org/2000/svg"
 width="800.000000pt" height="800.000000pt" viewBox="0 0 800.000000 800.000000"
 preserveAspectRatio="xMidYMid meet">
<metadata>
Created by potrace 1.11, written by Peter Selinger 2001-2013
</metadata>
<g transform="translate(0.000000,800.000000) scale(0.100000,-0.100000)"
fill="#000000" stroke="none">
<path d="M7265 6149 c-95 -27 -294 -80 -313 -84 -12 -3 -31 -7 -42 -10 -11 -3
-28 -7 -37 -9 -10 -2 -47 -12 -83 -21 -36 -9 -72 -19 -80 -21 -8 -2 -123 -30
-255 -64 -132 -33 -249 -62 -260 -65 -11 -2 -40 -9 -65 -16 -25 -6 -53 -12
-63 -14 -10 -2 -26 -6 -35 -9 -9 -3 -28 -7 -42 -10 -14 -3 -113 -25 -220 -50
-107 -24 -208 -46 -225 -49 -16 -3 -41 -8 -55 -11 -14 -3 -36 -8 -50 -10 -14
-3 -72 -14 -130 -26 -58 -11 -116 -22 -130 -24 -14 -3 -70 -12 -125 -21 -55
-9 -111 -18 -125 -21 -14 -2 -49 -7 -79 -10 -30 -3 -62 -7 -71 -9 -39 -7 -143
-19 -269 -30 -41 -4 -83 -8 -94 -10 -128 -25 -856 -25 -1092 -1 -16 2 -66 7
-110 11 -107 10 -124 12 -165 19 -19 3 -55 8 -80 10 -25 3 -45 5 -45 6 0 1
-16 3 -35 6 -30 4 -86 13 -239 39 -14 2 -47 9 -75 14 -28 6 -62 13 -76 15 -14
2 -47 10 -75 16 -27 6 -61 14 -75 16 -45 8 -261 60 -410 98 -8 3 -33 9 -55 14
-57 14 -230 61 -295 80 -30 8 -59 17 -65 18 -98 27 -174 49 -290 84 -77 23
-153 45 -170 50 -16 4 -69 19 -117 34 -48 15 -95 29 -105 31 -10 3 -37 10 -60
17 -51 15 -52 14 -142 -106 -143 -193 -236 -371 -351 -671 -5 -11 -14 -36 -21
-55 -8 -19 -14 -37 -15 -40 0 -3 -6 -25 -13 -50 -9 -31 -11 -71 -6 -135 4 -49
9 -106 10 -125 15 -182 34 -266 76 -331 63 -99 144 -142 266 -143 75 -1 83 -3
84 -21 1 -11 3 -382 4 -825 2 -726 5 -896 19 -1025 3 -22 7 -69 11 -105 3 -36
8 -76 10 -90 5 -27 11 -63 20 -125 5 -33 30 -150 50 -229 25 -103 51 -150 94
-174 43 -24 113 -29 171 -11 19 5 46 12 60 15 14 3 34 8 45 11 11 4 25 8 30 9
6 1 69 16 140 34 132 32 155 38 190 45 11 3 72 16 135 30 63 15 126 29 140 31
14 3 66 13 115 24 50 10 155 30 235 44 80 14 156 28 169 31 12 2 44 7 70 10
25 4 55 8 66 10 11 2 36 6 56 10 20 3 51 7 70 9 19 3 86 11 149 20 160 21 250
30 387 41 43 3 98 8 123 10 292 28 1033 28 1385 0 66 -5 193 -16 240 -20 142
-13 182 -17 195 -20 8 -2 44 -6 80 -10 36 -3 76 -7 90 -10 14 -2 45 -6 70 -9
25 -3 55 -8 67 -10 12 -3 48 -7 79 -11 32 -3 60 -8 63 -10 3 -1 30 -6 59 -9
29 -3 63 -8 75 -11 12 -2 38 -7 57 -10 19 -2 46 -7 60 -10 14 -2 63 -11 110
-19 47 -8 110 -20 140 -25 30 -6 66 -12 80 -15 14 -2 59 -11 100 -20 41 -9 93
-18 115 -22 22 -3 43 -8 47 -10 6 -4 68 -17 138 -30 29 -5 67 -13 240 -53 69
-16 141 -33 160 -37 19 -4 37 -8 40 -9 32 -8 122 -25 146 -28 36 -5 97 14 125
39 17 15 50 108 63 174 2 14 9 45 14 70 13 56 21 117 37 255 11 107 14 148 21
325 8 184 8 211 1 1142 -2 322 -2 590 2 595 3 4 41 9 83 9 197 4 312 136 333
381 3 40 8 81 10 92 5 26 19 201 17 222 -1 29 -109 342 -153 444 -77 181 -214
427 -286 515 -7 8 -18 22 -25 31 -10 12 -20 14 -43 8z m-755 -2229 c0 -5 -2
-10 -4 -10 -3 0 -8 5 -11 10 -3 6 -1 10 4 10 6 0 11 -4 11 -10z m-3425 -1279
c3 -5 2 -12 -3 -15 -5 -3 -9 1 -9 9 0 17 3 19 12 6z"/>
</g>
</svg>
